<svg xmlns="http://www.w3.org/2000/svg" width="150" height="150" viewBox="0 0 150 150">
    <g fill="#4267A1" transform="translate(23.608 27.182)">
        <circle cx="28.683" cy="26.317" r="5.832"/>
        <path d="M94.058 98.976h7.005l-8.924-18.329h-7.005l1.715 3.522H64.55l1.715-3.522H59.26l-8.924 18.329h7.005l1.383-2.84h33.95l1.384 2.84zM60.64 92.199l1.993-4.094h26.131l1.993 4.094H60.641zM68.287 25.209h14.825c1.304 0 2.362-1.058 2.362-2.362s-1.058-2.362-2.362-2.362H68.287c-1.304 0-2.362 1.058-2.362 2.362s1.058 2.362 2.362 2.362zM59.98 77.49h7.452V74.04c0-1.156.938-2.094 2.095-2.094h12.345c1.157 0 2.095.938 2.095 2.094v3.449h7.452c4.976 0 9.01-4.034 9.01-9.01V37.649c0-4.976-4.034-9.01-9.01-9.01H59.98c-4.975 0-9.009 4.034-9.009 9.01V68.48c0 4.976 4.034 9.01 9.01 9.01zm30.497-4.986c-2.317 0-4.196-1.879-4.196-4.197 0-2.317 1.879-4.196 4.196-4.196 2.318 0 4.197 1.879 4.197 4.197 0 2.317-1.88 4.196-4.197 4.196zM56.725 39.659c0-1.569 1.272-2.84 2.841-2.84h32.267c1.569 0 2.84 1.271 2.84 2.84v14.009c0 1.569-1.271 2.84-2.84 2.84H59.566c-1.569 0-2.84-1.271-2.84-2.84V39.659zm4.197 24.534c2.317 0 4.196 1.879 4.196 4.197 0 2.317-1.879 4.196-4.196 4.196-2.318 0-4.197-1.879-4.197-4.196 0-2.318 1.88-4.197 4.197-4.197zM68.675.008H0v5.928h2.586v5.907C1 13.273 0 15.344 0 17.65c0 4.315 3.498 7.813 7.813 7.813 4.315 0 7.812-3.498 7.812-7.813 0-2.305-.998-4.376-2.586-5.806V5.936h55.636c1.638 0 2.965-1.327 2.965-2.964S70.313.008 68.675.008zM5.551 5.936h4.524v4.234c-.716-.216-1.475-.334-2.262-.334-.787 0-1.546.118-2.262.334V5.936zm5.355 12.899H7.813c-.655 0-1.186-.53-1.186-1.186v-4.692c0-.655.531-1.186 1.186-1.186.654 0 1.185.53 1.185 1.186v3.506h1.908c.655 0 1.186.531 1.186 1.186 0 .655-.53 1.186-1.186 1.186zM32.654 86.205c1.07-.495 1.837-1.576 1.837-2.834V37.625c0-2.024-1.618-3.666-3.642-3.666h-6.714c-2.024 0-3.665 1.642-3.665 3.666v.464l1.695-.903-5.602 4.976c-.34.302-.596.685-.747 1.113l-3.332 9.512c-.488 1.392.245 2.916 1.637 3.403 1.386.486 2.914-.239 3.403-1.637l3.104-8.858 5.084-4.516-3.197 4.595-2.037 5.84V83.38c.004 1.254.795 2.33 1.862 2.824h-7.025c.736-.15 1.293-.824 1.293-1.603 0-.298-.083-.575-.225-.815 1.114-.219 1.954-1.2 1.954-2.377V62.357c0-1.14-.79-2.094-1.85-2.352v-2.11c-.926.325-1.965.351-2.963.002l-.002-.001v2.038H9.078c-1.338 0-2.423 1.085-2.423 2.424V81.41c0 1.177.84 2.158 1.953 2.377-.141.239-.224.516-.224.814 0 .78.556 1.453 1.293 1.603H0V101.056h43.015V90.933h3.437v-4.728H32.654zm-21.26-2.371h2.203c-.125.228-.196.49-.196.768 0 .78.556 1.453 1.293 1.603h-4.397c.737-.15 1.293-.824 1.293-1.603 0-.278-.071-.54-.196-.768zm13.564 2.371c1.074-.497 1.763-1.582 1.76-2.843v-25.25h1.503v25.26c0 1.257.745 2.338 1.816 2.833h-5.079z"/>
    </g>
</svg>
