<svg xmlns="http://www.w3.org/2000/svg" width="150" height="150" viewBox="0 0 150 150">
    <g fill="none" fill-rule="evenodd">
        <path fill="#4267A1" d="M44.528 18.264L72.375 38.72v24.448c-.597.34-1.087.714-1.47 1.123l.001-3.612-20.552-.167v5.68c0 .45.338.821.773.876l.11.006h18.508c-.057.494-.062 1.01-.015 1.549h-5.698c-1.328 0-2.404 1.076-2.404 2.404v5.048c0 1.328 1.076 2.404 2.404 2.404h.865l.966 5.454c.406 2.296 2.402 3.97 4.735 3.97h11.483V98.58l-76.325.001V46.71l38.772-28.446zm-5.65 42.242H18.326l.001 5.685c0 .45.337.821.772.876l.11.006h18.787c.45 0 .821-.336.876-.772l.006-.11v-5.685zM70.023 49.7H51.238c-.45 0-.822.337-.876.772l-.007.11v6.327l20.551.168v-6.494c0-.488-.395-.883-.883-.883zm-32.027 0H19.21c-.45 0-.822.337-.876.772l-.007.11v6.322h20.551v-6.321c0-.488-.395-.883-.882-.883z" transform="translate(9 23)"/>
        <path fill="#4367A1" d="M45.69.954l33.5 25.148c-3.336 1.553-5.823 4.622-6.577 8.322l-28.085-20.67L2.931 44.515c-.627.464-1.511.332-1.975-.295-.18-.245-.278-.54-.277-.844l.025-9.307c.002-.554.262-1.074.704-1.407L43.57.955c.628-.472 1.493-.473 2.122-.001zm38.693 31.664c-.068.091-.144.176-.225.255V29.85c.755.722.868 1.91.225 2.767z" transform="translate(9 23)"/>
        <path fill="#4267A1" d="M12.324 7.503h9.958c.585 0 1.06.474 1.06 1.059v2.678c0 .337-.16.653-.432.853l-9.958 7.336c-.47.347-1.134.247-1.48-.224-.135-.182-.207-.402-.207-.629V8.562c0-.585.474-1.06 1.06-1.06z" transform="translate(9 23)"/>
        <g fill="#4267A1" fill-rule="nonzero">
            <path d="M27.422 75.4c-.27 2.399-2.3 4.211-4.713 4.211h-3.703V93.7c0 2.4 1.952 4.604 4.346 4.776 2.75.198 5.041-1.974 5.041-4.68V70.061c-.127.07-.257.134-.392.19l-.58 5.148z" transform="translate(9 23) translate(64.72 8.416)"/>
            <path d="M51.725 33.137l-4.488-9.57c-1.366-2.912-4.291-4.771-7.507-4.771H19.97c-5.079 0-9.322 4.132-9.347 9.21v28.282c-1.32.533-2.306 1.825-2.306 3.333v2.731H1.704c-.843 0-1.526.683-1.526 1.526v2.808c0 .842.683 1.525 1.526 1.525h.665l1.41 6.93c.138 1.225 1.175 2.151 2.408 2.151h16.041c1.233 0 2.27-.926 2.408-2.152l.78-6.929h.665c.843 0 1.526-.683 1.526-1.525v-2.808c0-.843-.683-1.526-1.526-1.526h-5.05v-2.731c0-1.65-1.068-3.04-2.585-3.46V28.045c.003-.785.875-1.426 1.66-1.426V54.6c1.775.972 3.05 2.858 3.05 5.02v.413h4.488c.662 0 1.287.168 1.831.465v-4.22h2.026v37.42c0 2.401 1.952 4.605 4.347 4.777 2.749.198 5.041-1.974 5.041-4.68V28.459l4.808 10.25c.644 1.373 2.024 2.25 3.541 2.25h7.311l1.937-7.822h-6.761zM11.216 59.62c0-.177.07-.338.18-.461.712.913 1.818 1.505 3.065 1.511h.02c1.335 0 2.514-.67 3.22-1.693.252.105.43.354.43.643v2.731h-6.915v-2.731zm1.31 5.956c0-.406.328-.735.734-.735h2.828c.405 0 .735.329.735.735v5.268c0 .406-.33.735-.735.735H13.26c-.406 0-.734-.329-.734-.735v-5.268zM68.837 37.048c0-1.251-.59-2.362-1.504-3.078l-1.713 6.924c1.828-.328 3.217-1.923 3.217-3.846zM29.158 16.202c4.81.243 8.762-3.708 8.518-8.518C37.466 3.565 34.12.219 30.002.01c-4.81-.244-8.761 3.707-8.517 8.517.208 4.119 3.555 7.465 7.673 7.674zM61.524 30.032l-3.029 12.23c-.252 1.022.259 2.11 1.24 2.49.253.1.51.145.761.145.932 0 1.779-.632 2.013-1.577l3.044-12.29c1.146-.248 2.17-.918 2.854-1.88.335-.47.59-1.01.737-1.604.407-1.645-.103-3.302-1.204-4.433-.326-.335-.894-.052-.839.413l.202 1.697c.031.265-.057.528-.242.72l-1.106 1.149c-.22.228-.544.322-.852.246l-1.458-.361c-.308-.077-.552-.311-.64-.615l-.441-1.533c-.074-.255-.03-.53.121-.749l.971-1.407c.265-.385-.104-.9-.55-.757-1.501.486-2.725 1.714-3.133 3.36-.148.594-.173 1.19-.096 1.762.156 1.17.749 2.24 1.647 2.994z" transform="translate(9 23) translate(64.72 8.416)"/>
        </g>
    </g>
</svg>
