<svg xmlns="http://www.w3.org/2000/svg" width="150" height="150" viewBox="0 0 150 150">
    <g fill="#4267A1" fill-rule="evenodd">
        <path fill-rule="nonzero" d="M26.195 27.138c-.571 0-1.11-.266-1.458-.719-.077-.099-.136-.21-.174-.33l-1.798-5.598-4.973-3.168c-.106-.067-.2-.152-.276-.251-.437-.567-.507-1.335-.18-1.972.326-.636.99-1.027 1.706-1.002l5.78-.773 2.893-2.234-3.973-5.143c-.283-.367-.41-.832-.35-1.292.058-.46.298-.877.665-1.16l1.244-.962c.912-.701 2.192-.664 3.061.089l4.853 4.22L40.888.915c1.93-1.485 4.696-1.127 6.184.8 1.489 1.926 1.136 4.694-.788 6.186l-7.673 5.926 2.856 5.762c.509 1.032.222 2.279-.687 2.984l-1.244.962c-.305.236-.68.364-1.065.364-.076 0-.152-.005-.227-.014-.46-.058-.878-.298-1.16-.666l-3.974-5.143-2.892 2.234L28 25.696c-.191.843-.94 1.442-1.805 1.442zM39.158 7.623c.433.56 1.237.664 1.798.232.56-.433.664-1.238.23-1.798-.432-.56-1.237-.664-1.797-.232-.56.434-.663 1.238-.231 1.798zm-3.164 2.445c.433.56 1.238.663 1.798.23.56-.432.664-1.237.231-1.797-.432-.56-1.237-.664-1.798-.232-.56.433-.664 1.238-.23 1.799h-.001zm-3.164 2.444c.433.56 1.238.663 1.798.23.56-.432.664-1.237.231-1.797-.432-.56-1.237-.664-1.798-.232-.269.208-.444.514-.488.852-.043.337.05.678.257.947zm-3.164 2.443c.433.56 1.238.664 1.798.231.56-.433.664-1.238.231-1.798-.433-.56-1.237-.664-1.798-.23-.56.432-.663 1.237-.23 1.797z" transform="translate(27.457 9.417)"/>
        <g transform="translate(27.457 9.417) translate(0 18.214)">
            <path fill-rule="nonzero" d="M39.893 83.698l-6.546-24.427c-1.82-.706-3.941-.19-5.22 1.42l6.51 24.293c-7.719 1.735-17.275 6.151-23.31 5.263-2.666-.392-4.804-5.407-7.312-6.557-1.358-.622-2.963-.026-3.586 1.332-.622 1.358.038 5.996 1.613 8.975 1.576 2.978 3.915 4.725 6.6 5.944 2.684 1.22 7.155 1.439 11.343 1.403 25.094-.214 62.148-27.767 62.148-4.044 0 1.07 4.937-3.21 1.942-10.763s-11.987-8.684-14.496-8.96c-11.282-1.245-17.38 2.913-29.686 6.121z"/>
            <g fill-rule="nonzero">
                <path d="M16.638 7.708c.058 0 .116.002.174.006-.823-1.127-2.153-1.86-3.651-1.86-2.492 0-4.52 2.027-4.52 4.519s2.028 4.52 4.52 4.52h1.413c-.91-.95-1.47-2.236-1.47-3.65 0-1.95 1.585-3.535 3.534-3.535z" transform="translate(0 73.577)"/>
                <path d="M27.88 17.327c0-.449-.364-.812-.812-.812H13.161c-3.387 0-6.142-2.755-6.142-6.142 0-3.387 2.755-6.142 6.142-6.142 3.387 0 6.142 2.755 6.142 6.142 0 .448.363.811.812.811.448 0 .811-.363.811-.811C20.926 3.742 15.618 0 10.77 0 4.931 0 .18 4.75.18 10.59c-.065 2.37.017 3.804.248 4.302 2.755 5.945 5.139 6.999 5.453 6.999.533 0 .874-.261 1.063-.445.588-.584 1.367-.906 2.197-.906.829 0 1.608.322 2.196.906.19.185.532.445 1.063.445.533 0 .874-.261 1.063-.445.588-.584 1.367-.906 2.197-.906.829 0 1.608.322 2.196.906.189.184.532.445 1.063.445.533 0 .874-.261 1.063-.445.588-.584 1.367-.906 2.197-.906.829 0 1.608.322 2.196.906.19.185.532.445 1.063.445.533 0 .874-.261 1.064-.445.388-.387.862-.657 1.378-.797v-3.322z" transform="translate(0 73.577)"/>
            </g>
            <path fill-rule="nonzero" d="M17.778 22.066c1.796-.632 3.459-1.066 5.227-1.396l-.16-.594c-.386-1.443-1.869-2.3-3.312-1.913-1.443.387-2.3 1.87-1.913 3.313l.158.59zM51.628 24.518h2.877c1.493 0 2.705-1.21 2.705-2.705 0-1.494-1.212-2.705-2.705-2.705h-2.877c-1.494 0-2.705 1.211-2.705 2.705s1.211 2.705 2.705 2.705zM70.7 8.288c1.495 0 2.706-1.21 2.706-2.705V2.707c0-1.494-1.211-2.705-2.705-2.705s-2.705 1.21-2.705 2.705v2.876c0 1.494 1.21 2.705 2.705 2.705zM57.312 12.25c1.056 1.056 2.769 1.056 3.825 0 1.057-1.057 1.057-2.77 0-3.826L59.103 6.39c-1.056-1.056-2.769-1.056-3.825 0-1.056 1.057-1.056 2.77 0 3.826l2.034 2.034zM57.312 31.377l-2.034 2.034c-1.056 1.056-1.056 2.769 0 3.825 1.056 1.057 2.77 1.057 3.825 0l2.034-2.034c1.057-1.056 1.057-2.769 0-3.825-1.056-1.056-2.769-1.056-3.825 0zM67.996 38.043v2.877c0 1.494 1.21 2.705 2.705 2.705 1.494 0 2.705-1.211 2.705-2.705v-2.877c0-1.493-1.211-2.705-2.705-2.705s-2.705 1.212-2.705 2.705zM80.264 31.377c-1.056 1.056-1.056 2.769 0 3.825l2.034 2.034c1.056 1.057 2.769 1.057 3.825 0 1.057-1.056 1.057-2.769 0-3.825l-2.034-2.034c-1.056-1.056-2.769-1.056-3.825 0z"/>
            <circle cx="70.731" cy="22.061" r="9.969" stroke="#979797" stroke-width=".501"/>
            <path fill-rule="nonzero" d="M84.225 21.813c0 1.494 1.211 2.705 2.705 2.705h2.877c1.494 0 2.705-1.21 2.705-2.705 0-1.494-1.211-2.705-2.705-2.705H86.93c-1.494 0-2.705 1.211-2.705 2.705zM84.09 12.25l2.033-2.034c1.057-1.057 1.057-2.77 0-3.826-1.056-1.056-2.769-1.056-3.825 0l-2.034 2.034c-1.056 1.057-1.056 2.77 0 3.826s2.77 1.056 3.825 0zM24.078 57.1c2.658-3.154 6.98-4.34 10.87-3.001-.76-10.351-5.196-17.501-11.793-22.202-3.43 7.55-3.55 15.907.923 25.203zM6.141 62.956c2.689-4.457 8.261-6.083 12.894-3.853-.83-1.7-2.767-5.093-3.535-11.432-.867-7.153.503-14.214 3.964-20.461C5.288 32.278-2.819 47.485 1.215 62.27c.625 2.29 3.696 2.725 4.926.685zM37.668 41.73c2.266 5.314 2.447 8.704 2.665 11.827 2.848-4.387 8.575-5.852 13.193-3.32 2.08 1.141 4.521-.77 3.916-3.062-3.921-14.847-18.606-23.96-33.451-21.19 6.127 3.68 10.85 9.112 13.677 15.745z"/>
        </g>
    </g>
</svg>
