<svg xmlns="http://www.w3.org/2000/svg" width="760" height="760" viewBox="0 0 760 760">
    <g fill="none" fill-rule="evenodd">
        <g fill="#4267A1">
            <path d="M145.544 138.338c-.243 5.716-1.195 9.716-2.662 12.506-14.933-11.362-25.637-36.806-26.78-66.89 17.202 12.057 30.485 29.867 29.442 54.384zm59.133-53.835c-1.237 29.481-11.66 54.435-26.218 65.923-1.348-2.767-2.22-6.65-2.452-12.088-1.022-24.03 11.718-41.615 28.419-53.659l.25-.176zM160.4 0c8.16 0 35.544 26.45 42.685 61.775-11.179 6.43-20.955 14.31-28.694 23.604-5.906 7.093-10.494 14.858-13.616 23.201-3.121-8.343-7.71-16.108-13.615-23.2-7.894-9.481-17.907-17.49-29.365-23.988C125.055 26.259 152.27 0 160.4 0z" transform="translate(28 84) translate(149)"/>
            <path d="M122.147 156.999l-.238.005c-1.09.017-2.173.073-3.239.196-13.588 1.57-15.267-2.086-21.256-15.738 8.724 3.953 17.323 9.1 24.733 15.537zm-76.409-90.07c4.806-11.415 102.569 6.465 99.806 71.41-.215 5.046-.982 8.754-2.168 11.474-10.042-11.046-23.055-19.948-37.86-26.64-6.775-3.061-13.83-5.6-20.792-7.547C65.98 82.86 40.994 78.2 45.738 66.929zM204.763 157.39l.133-.122c5.368-4.71 11.375-8.737 17.608-12.118-4.536 10.057-7.071 13.142-17.741 12.24zm71.05-90.46c4.806 11.415-20.89 16.05-39.707 49.975l-.48.87c-4.647 1.554-9.281 3.36-13.79 5.399-16.11 7.28-30.098 17.179-40.445 29.605-.241.29-.48.58-.717.873-2.592-2.664-4.325-7.303-4.666-15.314-2.762-64.944 95-82.824 99.806-71.409z" transform="translate(28 84) translate(149)"/>
            <path d="M243.106 184.305c-18.817 33.927-5.94 34.131-25.57 31.865-11.841-1.368-29.918 7.345-30.958-17.092-2.762-64.945 91.43-76.164 96.236-64.749 4.805 11.416-20.89 16.05-39.708 49.976zM84.246 184.305c18.817 33.927 7.736 23.7 27.365 21.433 11.37-1.312 6.991 12.715 9.389-7.018.1-.82 14.305-2.383 14.346-3.358 2.763-64.945-86.002-72.448-90.808-61.033-4.805 11.416 20.89 16.05 39.708 49.976z" transform="translate(28 84) translate(149)"/>
            <path d="M159.414 475.255l12.322 10.737c-7.983 3.783-16.49 7.848-25.598 12.314-1.016-2.709-2.064-5.35-3.15-7.928l16.426-15.123zm71.432-67.335l34.187 31.232c-12.866 6.893-29.278 15.437-49.236 25.631-7.525 3.844-15.59 7.73-24.342 11.885l-17.25-15.032 21.907-20.169 34.734-33.547zm-145.672-1.813l30.798 29.743 20.334 19.269 7.938 6.917-10.47 9.64c-11.403-19.73-26.342-34.623-47.265-45.439-5.21-2.692-10.409-5.02-15.598-6.983 3.714-3.418 8.468-7.8 14.263-13.147zm71.954-68.567l44.844 43.31 14.189 13.446-33.797 32.642-23.33 21.479-9.016-7.858-20.22-19.16-29.902-28.88 14.52-13.41.71-.654 42.002-40.915zm136.472 9.772v75.728c-2.576 1.622-5.924 3.603-10.045 5.944l-38.295-34.985 48.34-46.687zm-266.511 2.694l43.704 42.21-22.473 20.79c-6.786-1.184-13.555-1.736-20.306-1.656l-.9-59.866-.025-1.478zm194.687-75.439l59.177 57.154-50.391 48.667-14.765-13.99-44.335-42.82 50.314-49.011zm-128.893.924l49.852 48.148-41.36 40.289-15.877 14.686-49.694-47.996 57.079-55.127zm185.892-56.852c9.478 18.458 14.825 39.385 14.825 61.561v35.93l-57.491-55.524 41.144-40.078.212-.212c.505-.521.941-1.084 1.31-1.677zm-240.506 3.217l16.227 16.562 23.993 23.171-52.05 50.271-.54-31.68c-.355-20.835 4.112-40.631 12.37-58.324zm119.539-9.07l49.575 47.88-50.315 49.011-49.79-48.089 50.53-48.802zm-51.687-56.808c-.467 2.981.415 6.127 2.64 8.459l.21.214 34.54 34.139-50.627 48.896-24.302-23.47-17.488-17.85c-.87-.887-1.865-1.579-2.93-2.073 14.15-21.19 34.25-38.102 57.957-48.315zm103.854-.655c24.23 9.976 44.918 26.8 59.656 48.063l-.2.015c-2.11.177-4.177 1.023-5.857 2.542l-.276.259-41.582 40.503-49.543-47.849 35.03-34.158.213-.212c2.422-2.506 3.28-5.975 2.56-9.163zM158.6 145.2c12.19 0 24.001 1.615 35.234 4.644l-.301.262-.292.273-35.366 34.486-34.845-34.439c-.109-.107-.219-.21-.33-.312 10.716-3.003 21.99-4.696 33.64-4.895.753-.013 1.507-.019 2.26-.019z" transform="translate(28 84) translate(149)"/>
        </g>
        <g>
            <g>
                <path fill="#4267A1" d="M150.52 13.256c14.787.2 31.848 1.937 51.183 5.213 38.501 6.524 68.209 35.893 76.18 72.786L173.074 143.02c-18.223 9-27.897 29.323-23.394 49.142 1.4 6.161 4.064 11.768 7.681 16.573H96.565c-46.45 0-84.103-37.655-84.103-84.104 0-.808.011-1.617.035-2.425l.391-13.58C14.184 63.707 47.09 25.99 91.416 18.611c16.846-2.804 31.997-4.51 45.452-5.12-1.37 4.123-2.933 7.477-4.69 10.063-.432.637-.727 1.34-.882 2.112-6.202-1.679-13.997-1.26-23.387 1.256-11.013 2.952-19.833 7.614-26.46 13.987l-.449.437 26.91 10.615-13.074 21.842.575.2c9.02 3.057 18.366 2.99 28.042-.2 9.88-3.258 16.44-8.567 19.678-15.926 6.573 6.948 13.862 12.257 21.866 15.926 7.834 3.591 17.14 4.504 27.916 2.74l.705-.12-13.823-24.462L209 44.84l-.436-.56c-6.988-8.905-14.858-14.69-23.61-17.357-7.365-2.244-16.53-2.638-27.497-1.182-.073-.216-.153-.433-.242-.65-1.31-3.204-3.436-6.994-6.38-11.371l-.314-.464zM280 112.514v10.148c0 40.282-27.671 74.101-65.042 83.485l-22.705-.001c-11.046 0-20.621-7.644-23.069-18.416-2.454-10.8 2.818-21.873 12.748-26.778l54.638-26.987 5.483 29.696.087.261c1.686 4.836 6.926 7.482 11.84 5.924 5.001-1.586 7.77-6.926 6.185-11.927l-6.025-32.633L280 112.514z" transform="translate(28 84) translate(0 414) translate(0 .854)"/>
                <path fill-rule="nonzero" d="M147.668.239l-.972.002c-6.717.081-23.988 1.455-52.475 4.145C40.809 9.431 0 54.276 0 107.926v7.866c0 56.854 46.089 102.943 102.942 102.943h84.116c56.853 0 102.942-46.09 102.942-102.943v-8.168c0-53.545-40.655-98.338-93.95-103.513l-10.482-1.002c-19.98-1.876-32.471-2.827-37.9-2.87zm-.032 20c5.412.05 21.136 1.317 46.482 3.778C237.163 28.197 270 64.377 270 107.624v8.168c0 45.808-37.135 82.943-82.942 82.943h-84.116C57.135 198.735 20 161.6 20 115.792v-7.867c0-43.332 32.961-79.553 76.101-83.627l7.37-.69c23.67-2.193 38.344-3.322 43.523-3.37h.642z" transform="translate(28 84) translate(0 414) translate(0 .854)"/>
            </g>
            <g fill="#4267A1">
                <path d="M345.529 36.757c1.428 2.89 2.5 5.943 3.196 9.091l23.542 106.65c4.762 21.572-8.865 42.92-30.438 47.682-1.676.37-3.374.631-5.081.783 1.484-2.133 2.093-4.861 1.457-7.59l-2.334-10-7.61-32.489-.067-.267c-1.31-4.95-6.33-7.991-11.35-6.815-5.108 1.196-8.279 6.308-7.082 11.416l7.608 32.48 2.332 9.992.066.267c.309 1.171.825 2.236 1.5 3.164h-28.196c.281-2.704-.055-6.466-1.203-11.757l-5.93-25.32-.067-.267c-1.31-4.95-6.331-7.991-11.35-6.815-5.109 1.196-8.28 6.308-7.083 11.416l5.931 25.32.067.266c.326 2.73 1.135 5.135 2.241 7.157h-83.565c-.026-.582-.106-1.17-.244-1.757l-7.608-32.48-.067-.267c-1.31-4.95-6.33-7.991-11.35-6.815-5.108 1.196-8.279 6.308-7.082 11.416l7.004 29.902H24.253c-11.046 0-20.621-7.644-23.069-18.415-2.454-10.8 2.818-21.874 12.748-26.778l54.638-26.988 5.483 29.696.087.261c1.686 4.836 6.926 7.482 11.84 5.924 5.001-1.585 7.77-6.925 6.185-11.927l-6.025-32.632 124.624-61.554 4.8 34.695.087.26c1.686 4.837 6.926 7.482 11.84 5.924 5.001-1.585 7.77-6.925 6.185-11.926l-5.215-37.694 63.49-31.36c19.807-9.782 43.795-1.656 53.578 18.15z" transform="translate(28 84) translate(0 414) translate(168 5.88)"/>
                <path stroke="#4267A1" stroke-width="20" d="M498.781 66.316l1.3 7.863-110.92 22.44-3.633-17.17 113.253-13.133zm-23.34 63.808l-2.016 11.717-77.744-14.408-4.012-18.96 83.773 21.651zm-21.025-108.15l-71.195 46.57-2.875-13.586 69.914-40.553 4.156 7.57z" transform="translate(28 84) translate(0 414) translate(168 5.88)"/>
            </g>
        </g>
    </g>
</svg>
