<svg xmlns="http://www.w3.org/2000/svg" width="150" height="150" viewBox="0 0 150 150">
    <g fill="#4267A1" transform="translate(23.608 27.675)">
        <path d="M69.06 52.216c0-1.86-1.509-3.369-3.37-3.369-.611.006-1.21.18-1.729.505 1.21 1.871 2.124 3.916 2.714 6.064 1.414-.424 2.383-1.724 2.385-3.2z"/>
        <rect width="60.638" height="5.053" x="37.056" y="18.528" rx="1.684"/>
        <path d="M6.737 60.638c-.002.611.033 1.222.105 1.829.08.871.81 1.538 1.684 1.54h53.695c.868.004 1.598-.653 1.684-1.516.072-.615.106-1.234.102-1.853 0-12.074-12.846-21.897-28.635-21.897-1.65.007-3.299.123-4.934.348l-3.727.676C15.144 42.585 6.737 50.868 6.737 60.638zM69.06 8.422c0-2.79 2.262-5.053 5.053-5.053h13.475c.93 0 1.684-.754 1.684-1.685 0-.93-.754-1.684-1.684-1.684h-15.16c-3.72 0-6.737 3.016-6.737 6.738v8.421h3.369V8.422zM41.151 35.372L93.598 35.372 94.201 26.95 40.55 26.95z"/>
        <circle cx="82.535" cy="48.847" r="3.369"/>
        <path d="M14.742 71.318l10.611 12.128 12.204-12.202c.313-.316.738-.496 1.184-.5h21.897v-3.369H10.106v3.369h3.37c.483.006.943.214 1.266.574zM6.738 80.85h11.868l-5.896-6.737H6.738c-1.861 0-3.37 1.508-3.37 3.369 0 1.86 1.509 3.368 3.37 3.368z"/>
        <path d="M67.375 77.482c0-1.861-1.508-3.37-3.368-3.37H39.438l-6.737 6.738h31.306c1.86 0 3.368-1.508 3.368-3.368zM101.063 96.01c0 .93-.754 1.684-1.684 1.684H1.684C.754 97.694 0 96.94 0 96.01c0-.93.754-1.685 1.684-1.685H15.16c-3.72 0-6.737-3.016-6.737-6.737v-3.369H21.56l1.247 1.432c.61.708 1.488 1.13 2.422 1.162.934.032 1.84-.329 2.496-.994l1.6-1.6h32.997v3.369c0 3.72-3.016 6.737-6.737 6.737h7.512c1.668-1.848 2.592-4.248 2.594-6.737v-3.605c1.009-.266 1.943-.762 2.729-1.448h21.812l-.404 5.541c-.265 3.518-3.193 6.24-6.72 6.25h16.27c.93 0 1.685.753 1.685 1.684zM61.985 46.632c1.187 1.609 2.714 3.483 3.78 6.978 1.064 3.494 1.523 8.915 1.479 9.273-.207 1.888-1.459 3.498-3.237 4.164v3.697c2.091-.027 4.074.932 5.352 2.588 1.278 1.657 1.702 3.817 1.146 5.834h19.963l2.89-40.425H51.27c4.11 1.81 7.768 4.504 10.716 7.891z"/>
        <circle cx="77.482" cy="69.06" r="1.684"/>
    </g>
</svg>
