<svg xmlns="http://www.w3.org/2000/svg" width="150" height="150" viewBox="0 0 150 150">
    <g fill="none">
        <path fill="#4267A1" d="M110.777 69.26c-.022-.013-.039-.028-.06-.04-.455-.3-1.044-.318-1.515-.041-.474.277-.747.797-.703 1.342.33 4.49-.013 8.523-.354 11.1-.033.238-.231.417-.474.427-.239.008-.448-.162-.496-.395-1.37-6.934-4.064-12.908-5.75-16.196-.182-.355-.503-.617-.887-.726-4.447-1.246-8.572-1.682-11.137-1.82-.451-.025-.887.165-1.18.514-.289.347-.396.813-.292 1.253 1.565 6.514 1.148 13.705.77 17.356-.024.234-.212.42-.444.438-.233.022-.45-.127-.515-.352-1.232-4.273-4.027-13.35-6.793-18.074-.282-.481-.818-.756-1.371-.704-3.756.35-7.366.89-10.584 2.346h-.003c-.637 0-1.016.684-.91 1.357.937 5.912.503 11.415.07 14.679-.033.237-.23.365-.472.372-.239.008-.45-.183-.497-.42-.885-4.483-2.327-8.579-3.692-11.798-.198-.468-.588-.834-1.073-.995-.482-.161-1.01-.11-1.451.147-8.665 5.029-12.532 10.907-12.532 16.91 0 12.767 16.666 14.28 37.225 14.28 20.558 0 37.223-1.513 37.223-14.28.005-5.503-3.431-10.918-12.103-16.68zM65.119 46.59v1.76h1.76c2.916 0 5.279-2.363 5.279-5.28v-1.76h-1.76c-2.916 0-5.28 2.364-5.28 5.28z" transform="translate(13 27)"/>
        <path fill="#000" d="M63.313 30.75c.016.02.032.036.046.055.014-.019.03-.035.046-.054h-.092z" transform="translate(13 27)"/>
        <path fill="#4267A1" d="M65.119 36.03v1.76h1.76c2.916 0 5.279-2.363 5.279-5.28v-1.76h-1.76c-2.916 0-5.28 2.364-5.28 5.28zM65.119 27.23h1.76c2.916 0 5.279-2.363 5.279-5.28v-1.76h-1.76c-2.916 0-5.28 2.365-5.28 5.28v1.76zM17.952 56.507L2.764 70.43h40.232L27.808 56.507c-2.82-2.472-7.037-2.472-9.856 0zm-1.057 9.523c-.972 0-1.76-.788-1.76-1.76s.788-1.76 1.76-1.76 1.76.788 1.76 1.76-.788 1.76-1.76 1.76zm9.504.88c-.972 0-1.76-.788-1.76-1.76s.788-1.76 1.76-1.76 1.76.788 1.76 1.76-.788 1.76-1.76 1.76zm-3.344-5.28c-.972 0-1.76-.788-1.76-1.76s.788-1.76 1.76-1.76 1.76.788 1.76 1.76-.788 1.76-1.76 1.76z" transform="translate(13 27)"/>
        <path fill="#000" d="M63.313 49.31c.016.02.032.036.046.055.014-.019.03-.035.046-.054h-.092z" transform="translate(13 27)"/>
        <path fill="#4267A1" d="M0 75.71c-.006 7.203 3.673 13.908 9.75 17.776.505.323.81.88.81 1.48v3.624H35.2v-3.62c0-.6.305-1.158.809-1.481 6.078-3.867 9.757-10.575 9.75-17.779v-1.76H0v1.76zM59.839 27.23h1.76v-1.76c0-2.915-2.364-5.28-5.28-5.28h-1.76v1.76c0 2.917 2.364 5.28 5.28 5.28zM65.367 14.91c0-2.645-.9-4.79-2.008-4.79-1.11 0-2.008 2.145-2.008 4.79 0 2.647.899 4.791 2.008 4.791s2.008-2.144 2.008-4.79zM59.839 48.35h1.76v-1.76c0-2.916-2.364-5.28-5.28-5.28h-1.76v1.76c0 2.917 2.364 5.28 5.28 5.28zM59.839 37.79h1.76v-1.76c0-2.916-2.364-5.28-5.28-5.28h-1.76v1.76c0 2.917 2.364 5.28 5.28 5.28z" transform="translate(13 27)"/>
        <path fill="#4267A1" d="M93.278 59.176c0-.09 1.823-11.15 1.968-18.7-.149-7.528-.8-15.036-1.947-22.475-.013-.089-.021-.178-.021-.268v-7.077c0-.38.124-.751.352-1.055l4.487-6.016c.474-.636.574-1.474.265-2.203-.42-.862-1.31-1.392-2.267-1.35H30.603c-.958-.042-1.849.488-2.27 1.35-.308.73-.207 1.57.268 2.207l3.696 4.952c.744.993 1.144 2.202 1.142 3.443v5.749c0 .09-.007.18-.02.268-1.151 7.463-1.802 14.995-1.947 22.545.098 5.104.443 10.338 1.019 15.487l16.218 14.868c.01.008.016.022.027.032.034.038.067.078.096.12.15.164-.423-.355 1.88 1.832C58.035 65.15 68.72 62.294 74.7 61.2c4.663-.852 10.856-1.527 18.578-2.024zM51.038 32.51v-3.52c0-.972.789-1.76 1.76-1.76h.047c-1.165-1.514-1.8-3.37-1.806-5.28V11.39h3.52v5.28h1.76c.576.002 1.151.061 1.716.177-.828-4.043.895-8.18 4.347-10.44.592-.394 1.362-.394 1.954 0 3.45 2.26 5.174 6.397 4.347 10.44.565-.116 1.14-.175 1.715-.177h1.76v-5.28h3.52v10.56c-.006 1.91-.64 3.766-1.805 5.28h.045c.972 0 1.76.788 1.76 1.76v3.52c-.006 1.91-.64 3.765-1.805 5.28h.045c.972 0 1.76.788 1.76 1.76v3.52c-.005 4.856-3.941 8.793-8.8 8.8h-1.76v7.04h-3.52v-7.04h-1.76c-4.857-.007-8.793-3.944-8.8-8.8v-3.52c0-.972.789-1.76 1.76-1.76h.047c-1.165-1.515-1.8-3.37-1.806-5.28z" transform="translate(13 27)"/>
    </g>
</svg>
