<svg xmlns="http://www.w3.org/2000/svg" width="760" height="760" viewBox="0 0 760 760">
    <g fill="none" fill-rule="evenodd" transform="translate(138 50)">
        <path fill="#4267A1" d="M436.999 556l.001 38c0 20.987-17.013 38-38 38H260c-20.987 0-38-17.013-38-38l-.001-38h215zm0-150v130h-215V406H271c0 43.63 26.415 79 59 79s59-35.37 59-79h47.999zM365 134c0 145.79 72 122 72 248.195l-.001 3.805h-49.906c-6.614-33.946-29.669-59-57.093-59-27.424 0-50.479 25.054-57.093 59H222l.001-3.805c0-124.612 69-103.39 70-248.195h73z"/>
        <ellipse cx="329.5" cy="407" stroke="#4267A1" stroke-linecap="round" stroke-width="20" rx="59" ry="79"/>
        <rect width="95" height="114" x="282" fill="#4267A1" rx="9"/>
        <path stroke="#4267A1" stroke-linecap="round" stroke-width="19" d="M293.537 515.533L365 515.533"/>
        <path stroke="#4267A1" stroke-linecap="round" stroke-width="20" d="M33.342 319h90.316c1.935 0 3.592 1.385 3.936 3.289l15.445 85.462c6.442 35.644-17.231 69.762-52.875 76.204C86.314 484.65 82.41 485 78.5 485c-36.222 0-65.585-29.363-65.585-65.585 0-3.911.35-7.815 1.046-11.664l15.445-85.462c.344-1.904 2.001-3.289 3.936-3.289z"/>
        <path stroke="#4267A1" stroke-linecap="round" stroke-width="19" d="M78.5 495.96L79 621.62M42.537 622.533L114 622.533M30.408 361.131c25.521-4.256 43.051 2.158 52.59 19.242 9.54 17.085 27.07 23.499 52.59 19.242"/>
        <path fill="#4267A1" d="M30.408 368.23c-12.916 36.935-16.732 62.467-11.448 76.596 5.285 14.129 23.061 25.923 53.33 35.384 19.506-.432 33.41-3.502 41.71-9.21 8.3-5.708 17.67-18.642 28.11-38.802L135.588 406l-27.378-5.111L88.813 383l-20.997-14.77H30.408z"/>
    </g>
</svg>
