<svg xmlns="http://www.w3.org/2000/svg" width="150" height="150" viewBox="0 0 150 150">
    <g fill="none" fill-rule="evenodd">
        <path fill="#4267A1" d="M75.297 18.99l40.533 29.773c.307 12.781.338 22.682.092 29.701-8.494 3.49-14.738 11.339-15.95 20.762-3.045-1.89-6.638-2.98-10.485-2.98-5.767 0-10.961 2.45-14.598 6.367l-7.173-.024c-3.636-3.903-8.821-6.344-14.576-6.344-3.827 0-7.401 1.08-10.436 2.95-.45-6.546-3.32-12.426-7.719-16.756V48.565L75.297 18.99zm-5.875 43.92H48.055v5.91c0 .47.354.858.81.911l.108.007h19.532c.47 0 .859-.355.912-.811l.006-.107-.001-5.91zm11.933.006v5.904c0 .47.354.858.81.911l.108.007h19.532c.47 0 .858-.355.911-.811l.007-.107-.001-5.731-21.367-.173zm20.45-11.242H82.273c-.471 0-.859.354-.912.811l-.006.107v6.578l21.367.175v-6.753c0-.507-.41-.918-.917-.918zm-33.3 0H48.973c-.47 0-.859.354-.912.811l-.006.107v6.573h21.367v-6.573c0-.507-.41-.918-.917-.918z" transform="translate(2.502 11.18)"/>
        <path fill="#4367A1" d="M76.505.992l43.912 32.965c.463.348.735.894.734 1.473l-.027 9.698c-.002.81-.661 1.467-1.472 1.464-.312 0-.616-.1-.867-.285L75.297 14.3l-43.25 31.985c-.651.482-1.571.344-2.053-.308-.188-.254-.289-.561-.288-.877l.026-9.677c.002-.575.273-1.116.732-1.462L74.3.993C74.953.502 75.852.5 76.505.992z" transform="translate(2.502 11.18)"/>
        <path fill="#4267A1" d="M41.814 7.8h10.353c.608 0 1.101.494 1.101 1.102v2.784c0 .35-.166.68-.448.887l-10.353 7.628c-.49.36-1.18.256-1.54-.233-.14-.19-.215-.419-.215-.654V8.902c0-.608.493-1.101 1.102-1.101zM18.449 80.534c10.189 0 18.449 8.26 18.449 18.45 0 10.188-8.26 18.448-18.45 18.448C8.26 117.432 0 109.172 0 98.983c0-10.189 8.26-18.449 18.449-18.449zm1.836 8.004l-7.986 10.908h8.253l-4.126 9.178 8.87-11.568h-8.87l3.859-8.518zM124.447 81.521c10.189 0 18.448 8.26 18.448 18.45 0 10.188-8.26 18.448-18.448 18.448-10.19 0-18.45-8.26-18.45-18.449 0-10.189 8.26-18.449 18.45-18.449zm5.172 24.964c-1.22.979-2.716 1.626-4.35 1.806v2.566l.387-.04c2.186-.261 4.176-1.166 5.777-2.518zm-10.555 0l-1.814 1.813.287.234c1.645 1.3 3.67 2.14 5.877 2.325v-2.566l-.325-.042c-1.508-.225-2.887-.85-4.025-1.765zm16.239-5.662h-2.567l-.042.325c-.225 1.509-.85 2.888-1.764 4.026l1.814 1.814.234-.287c1.3-1.646 2.14-3.67 2.325-5.878zm-19.356 0h-2.566l.039.388c.261 2.185 1.166 4.176 2.52 5.776l1.813-1.813-.192-.248c-.871-1.172-1.447-2.577-1.614-4.103zm10.497 2.487c-.358.222-.754.388-1.176.488v2.624l.305-.05c1.008-.191 1.936-.613 2.726-1.207zm-4.206 0l-1.854 1.854.241.174c.817.56 1.766.94 2.79 1.084v-2.624l-.25-.068c-.33-.1-.64-.243-.927-.42zm8.63-2.487h-2.624l-.068.25c-.101.329-.243.64-.42.927l1.854 1.854.173-.241c.56-.817.94-1.766 1.085-2.79zm-10.429 0h-2.624l.05.305c.192 1.008.613 1.935 1.208 2.725l1.854-1.854-.126-.22c-.16-.298-.282-.619-.362-.956zm3.903-3.085c-1.19 0-2.158.968-2.158 2.158s.968 2.158 2.158 2.158 2.157-.968 2.157-2.158-.968-2.158-2.157-2.158zm5.268-1.8l-1.854 1.855.126.22c.16.298.282.62.362.956h2.624l-.05-.304c-.191-1.009-.613-1.936-1.208-2.726zm3.134-3.133l-1.813 1.813.19.248c.873 1.172 1.448 2.577 1.615 4.103h2.567l-.04-.387c-.261-2.186-1.166-4.177-2.519-5.777zm-13.67 3.133c-.655.87-1.1 1.905-1.259 3.03h2.624l.068-.249c.101-.329.243-.64.42-.926zm-3.135-3.133c-1.432 1.694-2.362 3.826-2.558 6.164h2.566l.042-.325c.225-1.508.85-2.888 1.764-4.026zm9.33.564v2.625l.25.068c.328.1.64.242.926.42l1.854-1.854-.24-.174c-.818-.56-1.767-.94-2.79-1.085zm-1.854 0c-1.126.16-2.162.604-3.03 1.258l1.853 1.855.22-.127c.298-.159.62-.281.957-.362zm1.854-4.434V91.5l.325.042c1.508.225 2.887.85 4.026 1.764l1.813-1.813-.286-.234c-1.646-1.3-3.67-2.14-5.878-2.325zm-1.854 0c-2.338.196-4.47 1.126-6.165 2.559l1.814 1.813.247-.191c1.173-.872 2.578-1.448 4.104-1.615zM89.303 100.708c9.176 0 16.614 7.438 16.614 16.613s-7.438 16.613-16.614 16.613c-9.175 0-16.613-7.438-16.613-16.613s7.438-16.613 16.613-16.613zm-4.448 22.437h-1.802v3.603l.008.113c.055.444.434.788.893.788h10.809l.113-.007c.444-.056.788-.435.788-.894v-3.603h-1.802v2.702H90.26v-2.702h-1.801v2.702h-3.603v-2.702zm4.523-17.114c-.187-.007-.36.101-.433.273l-2.493 5.817-1.82-1.164-.078-.04c-.188-.073-.407-.013-.53.157-.813 1.128-1.42 3.262-1.42 4.415 0 3.501 2.714 5.854 6.755 5.854 4.04 0 6.755-2.353 6.755-5.854 0-1.462-.947-3.89-2.026-5.196-.134-.162-.363-.21-.55-.115l-2.116 1.07-1.636-4.909-.031-.072c-.075-.138-.217-.229-.377-.236zm-.02 7.206s2.703 3.011 2.703 4.504c0 1.492-1.21 2.702-2.702 2.702-1.493 0-2.703-1.21-2.703-2.702 0-1.493 2.703-4.504 2.703-4.504zM52.773 101.3c9.175 0 16.613 7.438 16.613 16.613s-7.438 16.613-16.613 16.613-16.613-7.438-16.613-16.613S43.598 101.3 52.773 101.3zm.092 9.729c-3.305 3.927-4.957 6.803-4.957 8.628 0 2.737 2.22 4.956 4.957 4.956 2.737 0 4.956-2.219 4.956-4.956 0-1.825-1.652-4.701-4.956-8.628z" transform="translate(2.502 11.18)"/>
    </g>
</svg>
