<svg xmlns="http://www.w3.org/2000/svg" width="150" height="150" viewBox="0 0 150 150">
    <g fill="#4267A1">
        <g>
            <path d="M45.137.397c-7.812 1.51-10.984 9.055-13.704 13.736-1.224-.3-2.535.284-3.103 1.472-.544 1.135-.226 2.452.679 3.239-.248.553-.4.925-.457 1.07l-13.21 29.078c-1.333-.615-2.92-.067-3.577 1.26-.669 1.35-.12 2.99 1.229 3.662l.09.046-2.972 6.545H2.727C1.222 60.505 0 61.73 0 63.238c0 1.508 1.222 2.732 2.727 2.732H16.36c1.505 0 2.727-1.224 2.727-2.732 0-1.509-1.222-2.733-2.727-2.733h-.256l1.89-4.163c.25.073.502.122.754.122 1.002 0 1.968-.556 2.445-1.517.624-1.26.18-2.758-.973-3.501l13.689-30.132c.37.17.755.256 1.138.256 1.016 0 1.99-.571 2.46-1.551.624-1.302.117-2.846-1.118-3.548C38.72 12.53 43.05 4.25 47.343 5.396c4.292 1.145 4.906 4.634 5.312 8.383.761 7.021.116 11.73-1.911 13.996-.187.209-.393.388-.603.557v6.117c1.68-.569 3.293-1.496 4.661-3.025 3.152-3.518 4.223-9.483 3.275-18.234C57.491 7.768 52.95-1.113 45.137.397z" transform="translate(4 37) matrix(-1 0 0 1 143.1 29.88)"/>
            <path d="M57.665 46.82c1.777 0 3.458.406 4.971 1.114V26.301c0-1.511.143-1.367-1.362-1.367H55.94c-1.505 0-16.686 1.254-20.696 21.16L32.67 62.55c0 1.512 1.22 3.42 2.724 3.42h12.928c-1.556-2.012-2.491-4.529-2.491-7.266 0-6.554 5.31-11.884 11.834-11.884z" transform="translate(4 37) matrix(-1 0 0 1 143.1 29.88)"/>
            <path d="M64.161 52.097c-.421-.408-.88-.775-1.372-1.098-1.443-.944-3.163-1.499-5.01-1.499-5.062 0-9.179 4.118-9.179 9.18 0 2.974 1.427 5.615 3.626 7.293.766.584 1.624 1.05 2.55 1.372.943.328 1.95.515 3.003.515 1.053 0 2.06-.187 3.003-.515.972-.338 1.871-.833 2.664-1.458.747-.587 1.404-1.283 1.938-2.071.994-1.468 1.576-3.236 1.576-5.137 0-1.798-.527-3.471-1.423-4.888-.395-.618-.853-1.187-1.376-1.694zm-6.382 1.978c2.542 0 4.603 2.062 4.603 4.604 0 2.543-2.061 4.604-4.603 4.604s-4.603-2.061-4.603-4.604c0-2.542 2.06-4.604 4.603-4.604z" transform="translate(4 37) matrix(-1 0 0 1 143.1 29.88)"/>
        </g>
        <path d="M35.861 61.476c6.185 0 11.36-4.407 12.55-10.246h-3.158c-1.414 0-2.561-1.147-2.561-2.561 0-1.415 1.147-2.562 2.561-2.562h3.158c-1.19-5.839-6.365-10.246-12.55-10.246-7.062 0-12.807 5.746-12.807 12.808 0 7.062 5.745 12.807 12.807 12.807zM0 8.505v11.987h71.722V8.505C71.722 3.808 67.914 0 63.217 0H8.505C3.808 0 0 3.808 0 8.505zm28.177 4.303h-15.37c-1.414 0-2.561-1.147-2.561-2.562 0-1.415 1.147-2.561 2.562-2.561h15.369c1.414 0 2.561 1.146 2.561 2.561s-1.147 2.562-2.561 2.562zm10.246 0c-1.415 0-2.562-1.147-2.562-2.562 0-1.415 1.147-2.561 2.562-2.561 1.414 0 2.561 1.146 2.561 2.561s-1.147 2.562-2.561 2.562zm10.246 0c-1.415 0-2.562-1.147-2.562-2.562 0-1.415 1.147-2.561 2.562-2.561 1.414 0 2.561 1.146 2.561 2.561s-1.147 2.562-2.561 2.562zm10.246 0c-1.415 0-2.562-1.147-2.562-2.562 0-1.415 1.147-2.561 2.562-2.561 1.414 0 2.561 1.146 2.561 2.561s-1.147 2.562-2.561 2.562z" transform="translate(4 37)"/>
        <path d="M71.722 71.722V25.615H0v46.107h71.722zM58.915 61.476c1.414 0 2.561 1.147 2.561 2.562 0 1.414-1.147 2.561-2.561 2.561-1.415 0-2.562-1.147-2.562-2.561 0-1.415 1.147-2.562 2.562-2.562zM35.86 30.738c9.887 0 17.93 8.044 17.93 17.93 0 9.888-8.043 17.931-17.93 17.931s-17.93-8.043-17.93-17.93 8.043-17.93 17.93-17.93z" transform="translate(4 37)"/>
        <path d="M0 70.211h71.722v.21c0 5.543-4.493 10.036-10.036 10.036h-51.65C4.493 80.457 0 75.964 0 70.421v-.21z" transform="translate(4 37)"/>
    </g>
</svg>
