<svg xmlns="http://www.w3.org/2000/svg" width="150" height="150" viewBox="0 0 150 150">
    <g fill="#4267A1">
        <g>
            <path d="M26.586 23.697L39.247 36.39c3.124-2.696 7.002-4.365 11.108-4.782.871-.073 1.747-.08 2.62-.02l-8.61-8.61c-4.334-4.313-11.977-4.008-17.779.72z" transform="translate(14.063 -3.157) translate(0 40.895)"/>
            <path d="M8.876 23.645c-.011 3.973 1.568 7.785 4.385 10.587l26.478 26.479c-.13-5.655 2.059-11.116 6.058-15.116 3.999-4 9.46-6.189 15.115-6.059-2.472-3.055-6.33-4.638-10.236-4.2-3.353.353-6.516 1.729-9.062 3.94-.66.558-1.497.862-2.361.86-.998 0-1.954-.395-2.66-1.1l-12.67-12.668c-.75-.754-1.147-1.79-1.09-2.853.055-1.062.558-2.051 1.384-2.722 3.74-3.14 8.521-4.764 13.4-4.554l-3.182-3.181c-4.282-4.283-10.722-5.564-16.317-3.246-5.595 2.317-9.242 7.777-9.242 13.833zM16.184 6.577l-1.576-4.732C14.22.684 13.098-.07 11.875.01c-1.222.08-2.237.973-2.472 2.175-.205.447-.258 5.637-5.36 6.685-1.038.324-2.55.114-3.471 1.612-.417.699-.495 1.548-.213 2.312.282.763.894 1.358 1.665 1.618l4.757 1.578c1.87-4.184 5.216-7.532 9.4-9.401l.003-.011z" transform="translate(14.063 -3.157) translate(0 40.895)"/>
            <path d="M48.444 48.24c-5.838 5.84-6.728 14.447-1.986 19.19 4.742 4.742 13.353 3.851 19.189-1.984 5.835-5.836 6.737-14.447 1.986-19.191-2.082-2.018-4.886-3.116-7.784-3.049-4.315.117-8.411 1.925-11.405 5.035zm1.323 14.557c-.535.536-1.34.696-2.04.406-.7-.29-1.155-.972-1.155-1.729 0-.757.456-1.44 1.155-1.729.7-.29 1.505-.13 2.04.406.73.731.73 1.916 0 2.646zm1.323-9.262c-.535-.535-.696-1.34-.406-2.04.29-.699.972-1.155 1.73-1.155.756 0 1.439.456 1.728 1.156.29.699.13 1.504-.406 2.04-.73.73-1.915.73-2.646 0zm5.293 13.234c-.731.73-1.916.73-2.647-.001-.73-.73-.73-1.916 0-2.646.731-.731 1.916-.732 2.647-.001.351.35.549.827.549 1.324 0 .496-.198.973-.55 1.324zm2.648-7.941c-.535.535-1.34.696-2.04.406-.7-.29-1.155-.972-1.155-1.73 0-.756.456-1.439 1.155-1.728.7-.29 1.505-.13 2.04.406.73.73.73 1.915 0 2.646zm5.293 5.293c-.536.535-1.34.695-2.04.406-.7-.29-1.155-.972-1.155-1.73 0-.757.456-1.439 1.155-1.729.7-.29 1.504-.13 2.04.406.73.731.73 1.916 0 2.647zm0-10.586c.535-.535 1.34-.695 2.04-.406.699.29 1.155.972 1.155 1.73 0 .756-.456 1.439-1.156 1.729-.7.29-1.504.129-2.04-.406-.73-.731-.73-1.916 0-2.647zM63 46.918c.536.535.696 1.34.406 2.04-.29.699-.972 1.155-1.729 1.155-.757 0-1.44-.456-1.729-1.156-.29-.7-.13-1.504.406-2.04.731-.73 1.916-.73 2.646 0zM45.114 86.09c.521.003 1.017.224 1.366.61.454-.964 1.01-1.878 1.659-2.724-2.512-2.866-5.992-4.705-9.775-5.164C27.81 77.096 17.868 85.664 21.52 94.51c2.025 5.057 7.742 8.425 14.237 8.425 4.004.045 7.892-1.345 10.961-3.917-1.523-2.828-1.981-6.11-1.29-9.247-.102.03-.207.052-.314.064-1.033 0-1.871-.838-1.871-1.872 0-1.033.838-1.871 1.871-1.871zm-20.587 1.872c0-1.033.838-1.871 1.872-1.871 1.034 0 1.871.838 1.871 1.871 0 1.034-.837 1.872-1.871 1.872s-1.872-.838-1.872-1.872zm3.743 9.358c-1.033 0-1.871-.838-1.871-1.872 0-1.033.838-1.871 1.871-1.871 1.034 0 1.872.838 1.872 1.871 0 1.034-.838 1.872-1.872 1.872zm7.487 3.743c-1.034 0-1.872-.838-1.872-1.872 0-1.033.838-1.871 1.872-1.871 1.033 0 1.871.838 1.871 1.871 0 1.034-.838 1.872-1.871 1.872zm0-7.486c-1.034 0-1.872-.838-1.872-1.872 0-1.033.838-1.871 1.872-1.871 1.033 0 1.871.838 1.871 1.871 0 1.034-.838 1.872-1.871 1.872zm0-7.486c-1.034 0-1.872-.838-1.872-1.872 0-1.034.838-1.871 1.872-1.871 1.033 0 1.871.837 1.871 1.871s-.838 1.872-1.871 1.872zm9.357 9.357c0 1.034-.838 1.872-1.871 1.872-1.034 0-1.872-.838-1.872-1.872 0-1.033.838-1.871 1.872-1.871 1.033 0 1.871.838 1.871 1.871zM86.288 74.861c-8.255 0-14.972 5.458-14.972 12.165 0 6.708 6.717 12.165 14.972 12.165 8.255 0 14.972-5.457 14.972-12.165 0-6.707-6.717-12.165-14.972-12.165zm-11.23 9.358c0-1.034.839-1.871 1.872-1.871 1.034 0 1.872.837 1.872 1.871s-.838 1.872-1.872 1.872c-1.033 0-1.871-.838-1.871-1.872zm3.744 9.358c-1.034 0-1.872-.838-1.872-1.872 0-1.033.838-1.871 1.872-1.871 1.033 0 1.871.838 1.871 1.871 0 1.034-.838 1.872-1.871 1.872zm7.486 3.743c-1.034 0-1.872-.838-1.872-1.872 0-1.033.838-1.871 1.872-1.871 1.034 0 1.872.838 1.872 1.871 0 1.034-.838 1.872-1.872 1.872zm0-7.486c-1.034 0-1.872-.838-1.872-1.872 0-1.033.838-1.871 1.872-1.871 1.034 0 1.872.838 1.872 1.871 0 1.034-.838 1.872-1.872 1.872zm0-7.486c-1.034 0-1.872-.838-1.872-1.872 0-1.034.838-1.872 1.872-1.872 1.034 0 1.872.838 1.872 1.872 0 1.034-.838 1.872-1.872 1.872zm7.486 11.229c-1.033 0-1.871-.838-1.871-1.872 0-1.033.838-1.871 1.871-1.871 1.034 0 1.872.838 1.872 1.871 0 1.034-.838 1.872-1.872 1.872zm1.872-7.486c-1.034 0-1.872-.838-1.872-1.872 0-1.034.838-1.871 1.872-1.871 1.033 0 1.871.837 1.871 1.871s-.838 1.872-1.871 1.872z" transform="translate(14.063 -3.157) translate(0 40.895)"/>
            <path d="M30.1 75.61c.838-.236 1.69-.408 2.554-.515.852-.129 1.711-.2 2.573-.215-3.12-3.687-7.743-5.759-12.571-5.633-8.256 0-14.972 5.457-14.972 12.165 0 5.092 3.862 9.522 9.513 11.304-.1-.644-.151-1.295-.156-1.947 0-7.373 5.886-13.287 13.06-15.159zm-7.444-2.62c1.033 0 1.871.838 1.871 1.871 0 1.034-.838 1.872-1.871 1.872-1.034 0-1.872-.838-1.872-1.872 0-1.033.838-1.871 1.872-1.871zm-11.23 5.614c0-1.033.839-1.871 1.872-1.871 1.034 0 1.872.838 1.872 1.871 0 1.034-.838 1.872-1.872 1.872-1.033 0-1.871-.838-1.871-1.872zm3.744 9.358c-1.034 0-1.872-.838-1.872-1.871 0-1.034.838-1.872 1.872-1.872 1.033 0 1.871.838 1.871 1.872 0 1.033-.838 1.871-1.871 1.871zM71.316 99.191c-.88-.006-1.635-.623-1.817-1.483-.183-.86.258-1.73 1.059-2.093-1.913-2.456-2.963-5.475-2.985-8.589.005-2.01.453-3.995 1.31-5.814-1.64-.487-3.342-.734-5.053-.736-7.62 0-14.973 5.023-14.973 12.165.01 2.025.623 4.002 1.761 5.676 3.05 4.227 8.003 6.659 13.212 6.489 4.405.077 8.656-1.625 11.79-4.722-.945-.556-1.839-1.196-2.67-1.91-.313.617-.943 1.009-1.634 1.017zM52.6 89.834c0-1.034.838-1.872 1.872-1.872 1.034 0 1.871.838 1.871 1.872 0 1.033-.837 1.871-1.871 1.871s-1.872-.838-1.872-1.871zm3.743 9.357c-1.033 0-1.871-.838-1.871-1.871 0-1.034.838-1.872 1.871-1.872 1.034 0 1.872.838 1.872 1.872 0 1.033-.838 1.871-1.872 1.871zm7.487 3.743c-1.034 0-1.872-.837-1.872-1.871s.838-1.872 1.872-1.872c1.033 0 1.871.838 1.871 1.872 0 1.034-.838 1.871-1.871 1.871zm0-7.486c-1.034 0-1.872-.838-1.872-1.871 0-1.034.838-1.872 1.872-1.872 1.033 0 1.871.838 1.871 1.872 0 1.033-.838 1.871-1.871 1.871zm0-7.486c-1.034 0-1.872-.838-1.872-1.871 0-1.034.838-1.872 1.872-1.872 1.033 0 1.871.838 1.871 1.872 0 1.033-.838 1.871-1.871 1.871z" transform="translate(14.063 -3.157) translate(0 40.895)"/>
        </g>
        <g transform="translate(14.063 -3.157) rotate(30 29.072 109.717)">
            <path d="M20.989 35.939c5.954.964 12.7 2.055 19.483 5.613 7.068 3.706 13.428 5.586 18.903 5.587 4.873 0 8.885-1.556 11.606-4.496 2.636-2.849 4.027-6.924 4.027-11.789 0-14.677-15.668-26.619-34.925-26.619-21.67 0-34.097 7.558-34.097 20.735-.002 8.538 5.967 9.507 15.003 10.969zm4.906-23.834c5.428 0 9.83 3.406 9.83 7.605 0 4.2-4.402 7.607-9.83 7.607-5.427 0-9.828-3.406-9.828-7.607 0-4.199 4.401-7.605 9.828-7.605z"/>
            <path d="M41.271 50.845c26.758 15.512 42.25 4.862 42.25-14.945C83.522 16.093 64.61.034 41.272.034 17.936.035 0 8.407 0 28.215c0 19.809 21.083 10.928 41.271 22.63zm.05-48.772c21.449 0 38.897 13.487 38.897 30.066 0 5.625-1.645 10.375-4.752 13.737-3.238 3.499-7.951 5.35-13.638 5.35-6.109 0-13.146-2.068-20.917-6.142-6.952-3.644-13.972-4.781-20.168-5.785-9.742-1.58-17.436-2.826-17.436-13.41C3.303 10.753 17.161 2.073 41.321 2.073z"/>
            <ellipse cx="26.24" cy="20.298" rx="5.178" ry="4.007"/>
        </g>
    </g>
</svg>
