<svg xmlns="http://www.w3.org/2000/svg" width="150" height="150" viewBox="0 0 150 150">
    <g fill="none">
        <path fill="#000" d="M106.173 57.419L123.671 57.419 123.671 48.585 101.354 48.585z" transform="translate(13.753 19.78)"/>
        <path fill="#4267A1" d="M41.96 41.96v2.208h20.89c.604-1.909 1.465-3.727 2.559-5.405-1.06-3.277-3.05-6.175-5.727-8.342-5.188-4.186-12.29-5.097-18.366-2.357.43 1.653.646 3.354.644 5.062.001 1.631-.602 3.205-1.693 4.417 1.091 1.213 1.694 2.786 1.693 4.417zM95.017 37.046c-6.475-5.226-15.72-5.226-22.194 0-2.334 1.89-4.151 4.34-5.282 7.122h32.758c-1.131-2.782-2.948-5.232-5.282-7.122z" transform="translate(13.753 19.78)"/>
        <path fill="#4267A1" d="M68.617 34.873c.458-.44.934-.861 1.429-1.263 5.684-4.588 13.27-6.07 20.262-3.957 6.993 2.113 12.49 7.547 14.682 14.515h5.43c3.391.002 6.484-1.938 7.959-4.99 1.474-3.054 1.072-6.682-1.037-9.337-2.108-2.655-5.55-3.87-8.859-3.124-.914.205-1.859-.19-2.355-.986-.497-.795-.437-1.817.149-2.55 1.26-1.56 1.943-3.508 1.935-5.514 0-3.654-2.25-6.93-5.66-8.243-3.41-1.312-7.277-.39-9.727 2.32-.483.536-1.198.801-1.913.711-.716-.09-1.343-.524-1.679-1.162-2.2-4.177-6.887-6.876-11.938-6.876-5.86 0-10.953 3.448-12.671 8.58-.206.615-.67 1.107-1.27 1.349s-1.276.208-1.85-.093c-1.26-.662-2.662-1.006-4.085-1.003-4.877.006-8.828 3.958-8.834 8.834 8.598-.001 16.415 4.99 20.032 12.789z" transform="translate(13.753 19.78)"/>
        <path fill="#000" d="M121.722 61.836L108.582 61.836 119.272 81.434z" transform="translate(13.753 19.78)"/>
        <path fill="#4267A1" d="M0 57.419L123.671 57.419 123.671 48.585 0 48.585zM30.918 2.208C30.916.99 29.928.001 28.709 0H15.46c-1.22.001-2.207.99-2.209 2.208v2.209h17.668V2.208zM37.543 41.96c-.001-1.22-.99-2.207-2.208-2.209H8.834c-1.22.002-2.207.99-2.209 2.209v2.208h30.918V41.96zM14.844 17.667h14.48c-1.603-2.686-2.552-5.712-2.77-8.833h-8.94c-.218 3.12-1.167 6.147-2.77 8.833z" transform="translate(13.753 19.78)"/>
        <path fill="#000" d="M15.14 61.836L1.95 61.836 4.409 81.51z" transform="translate(13.753 19.78)"/>
        <path fill="#4267A1" d="M93.488 61.836H1.95L4.409 81.51c0 1.22 3.101 21.869 2.78 22.235l.94 7.52c.254 2.037 2.14 3.573 4.388 3.573h98.638c2.247 0 4.133-1.536 4.389-3.573l.95-7.601c-.327-.37 5.465-41.396 5.228-41.828H93.488zm-73.612 44.168c0 1.22-.989 2.208-2.209 2.208-1.22 0-2.208-.988-2.208-2.208v-13.25c0-1.22.989-2.209 2.208-2.209 1.22 0 2.209.989 2.209 2.208v13.251zm8.833 0c0 1.22-.988 2.208-2.208 2.208-1.22 0-2.208-.988-2.208-2.208v-13.25c0-1.22.988-2.209 2.208-2.209 1.22 0 2.208.989 2.208 2.208v13.251zm8.834 0c0 1.22-.989 2.208-2.208 2.208-1.22 0-2.209-.988-2.209-2.208v-13.25c0-1.22.989-2.209 2.209-2.209 1.22 0 2.208.989 2.208 2.208v13.251zm0-22.084c0 1.22-.989 2.208-2.208 2.208-1.22 0-2.209-.989-2.209-2.208V70.67c0-1.22.989-2.21 2.209-2.21 1.22 0 2.208.99 2.208 2.21v13.25zm-8.834 0c0 1.22-.988 2.208-2.208 2.208-1.22 0-2.208-.989-2.208-2.208V70.67c0-1.22.988-2.21 2.208-2.21 1.22 0 2.208.99 2.208 2.21v13.25zm-8.833 0c0 1.22-.989 2.208-2.209 2.208-1.22 0-2.208-.989-2.208-2.208V70.67c0-1.22.989-2.21 2.208-2.21 1.22 0 2.209.99 2.209 2.21v13.25zm26.5 22.084c0 1.22-.988 2.208-2.208 2.208-1.22 0-2.208-.988-2.208-2.208v-13.25c0-1.22.989-2.209 2.208-2.209 1.22 0 2.209.989 2.209 2.208v13.251zm0-22.084c0 1.22-.988 2.208-2.208 2.208-1.22 0-2.208-.989-2.208-2.208V70.67c0-1.22.989-2.21 2.208-2.21 1.22 0 2.209.99 2.209 2.21v13.25zm8.834 22.084c0 1.22-.988 2.208-2.208 2.208-1.22 0-2.208-.988-2.208-2.208v-13.25c0-1.22.988-2.209 2.208-2.209 1.22 0 2.208.989 2.208 2.208v13.251zm0-22.084c0 1.22-.988 2.208-2.208 2.208-1.22 0-2.208-.989-2.208-2.208V70.67c0-1.22.988-2.21 2.208-2.21 1.22 0 2.208.99 2.208 2.21v13.25zm8.834 22.084c0 1.22-.989 2.208-2.208 2.208-1.22 0-2.209-.988-2.209-2.208v-13.25c0-1.22.989-2.209 2.209-2.209 1.22 0 2.208.989 2.208 2.208v13.251zm0-22.084c0 1.22-.989 2.208-2.208 2.208-1.22 0-2.209-.989-2.209-2.208V70.67c0-1.22.989-2.21 2.209-2.21 1.22 0 2.208.99 2.208 2.21v13.25zm8.834 22.084c0 1.22-.989 2.208-2.209 2.208-1.22 0-2.208-.988-2.208-2.208v-13.25c0-1.22.989-2.209 2.208-2.209 1.22 0 2.209.989 2.209 2.208v13.251zm0-22.084c0 1.22-.989 2.208-2.209 2.208-1.22 0-2.208-.989-2.208-2.208V70.67c0-1.22.989-2.21 2.208-2.21 1.22 0 2.209.99 2.209 2.21v13.25zm8.833 22.084c0 1.22-.988 2.208-2.208 2.208-1.22 0-2.208-.988-2.208-2.208v-13.25c0-1.22.988-2.209 2.208-2.209 1.22 0 2.208.989 2.208 2.208v13.251zm0-22.084c0 1.22-.988 2.208-2.208 2.208-1.22 0-2.208-.989-2.208-2.208V70.67c0-1.22.988-2.21 2.208-2.21 1.22 0 2.208.99 2.208 2.21v13.25zm8.834 22.084c0 1.22-.989 2.208-2.208 2.208-1.22 0-2.209-.988-2.209-2.208v-13.25c0-1.22.989-2.209 2.209-2.209 1.22 0 2.208.989 2.208 2.208v13.251zm0-22.084c0 1.22-.989 2.208-2.208 2.208-1.22 0-2.209-.989-2.209-2.208V70.67c0-1.22.989-2.21 2.209-2.21 1.22 0 2.208.99 2.208 2.21v13.25zm8.834 0c0 1.22-.989 2.208-2.209 2.208-1.22 0-2.208-.989-2.208-2.208V70.67c0-1.22.989-2.21 2.208-2.21 1.22 0 2.209.99 2.209 2.21v13.25zm8.833 0c0 1.22-.988 2.208-2.208 2.208-1.22 0-2.208-.989-2.208-2.208V70.67c0-1.22.988-2.21 2.208-2.21 1.22 0 2.208.99 2.208 2.21v13.25zm-8.833 22.084c0 1.22-.989 2.208-2.209 2.208-1.22 0-2.208-.988-2.208-2.208v-13.25c0-1.22.989-2.209 2.208-2.209 1.22 0 2.209.989 2.209 2.208v13.251zm8.833 0c0 1.22-.988 2.208-2.208 2.208-1.22 0-2.208-.988-2.208-2.208v-13.25c0-1.22.988-2.209 2.208-2.209 1.22 0 2.208.989 2.208 2.208v13.251zM8.834 35.335h26.5c1.22-.002 2.208-.99 2.21-2.209.015-4.16-1.664-8.146-4.651-11.042H11.275C8.29 24.98 6.61 28.966 6.625 33.126c.002 1.22.99 2.207 2.209 2.209z" transform="translate(13.753 19.78)"/>
    </g>
</svg>
