<svg xmlns="http://www.w3.org/2000/svg" width="150" height="150" viewBox="0 0 150 150">
    <g fill="#4267A1" fill-rule="evenodd" transform="translate(0 20)">
        <path d="M46.23 47.678h24.733c1.531 0 2.772 1.241 2.772 2.772v32.156c0 1.53-1.24 2.772-2.772 2.772h-15.19c-1.183 0-2.157-.927-2.216-2.108-.245-4.936-1.65-8.669-4.215-11.198-2.556-2.52-6.276-3.857-11.158-4.01-1.197-.038-2.148-1.019-2.148-2.217v-7.972c0-5.63 4.564-10.195 10.195-10.195zM105.12 47.678H80.388c-1.53 0-2.772 1.241-2.772 2.772v32.156c0 1.53 1.241 2.772 2.772 2.772h15.191c1.182 0 2.156-.927 2.215-2.108.245-4.936 1.65-8.669 4.216-11.198 2.555-2.52 6.275-3.857 11.157-4.01 1.197-.038 2.148-1.019 2.148-2.217v-7.972c0-5.63-4.564-10.195-10.195-10.195z"/>
        <path d="M37.145 72.072h2.772c5.205 0 9.425 4.22 9.425 9.425v25.502c0 1.531-1.241 2.772-2.772 2.772h-9.425c-5.512 0-9.98-4.468-9.98-9.979v-17.74c0-5.512 4.468-9.98 9.98-9.98zM114.76 72.072h-2.771c-5.205 0-9.425 4.22-9.425 9.425v25.502c0 1.531 1.241 2.772 2.772 2.772h9.425c5.511 0 9.979-4.468 9.979-9.979v-17.74c0-5.512-4.468-9.98-9.98-9.98z"/>
        <rect width="44.906" height="20.513" x="53.222" y="89.258" rx="2.218"/>
        <rect width="23.285" height="4.99" y="104.782" rx="2.218"/>
        <path d="M33.358.561c2.953.125 5.812.85 8.578 2.173C44.7 4.058 46.873 6.09 48.452 8.83c.132 1.242-.768 2.356-2.01 2.488-.736.078-1.463-.21-1.947-.768-.917-1.058-1.77-1.9-2.56-2.527-3.676-2.92-6.766-3.437-11.806-2.78-4.957.648-10.725 5.02-10.725 13.165 0 5.429.012 15.682.037 30.76v60.604h-5.027v-90.82c0-10.16 8.238-18.398 18.4-18.398.18 0 .362.003.544.008z"/>
        <path d="M47.956 16.105c6.256 0 10.621 2.57 13.095 7.713.686 1.425 1.042 2.985 1.042 4.567v3.74c0 2.144-1.738 3.882-3.881 3.882H37.699c-2.143 0-3.88-1.738-3.88-3.881v-4.489c0-1.69.386-3.357 1.128-4.874 2.173-4.439 6.509-6.658 13.009-6.658z"/>
        <g fill-rule="nonzero">
            <path d="M16.446 14.28c-.155-.185-.387-.293-.632-.293H9.707V10.14c.222.035.445.052.667.052 1.122 0 2.215-.434 3.04-1.246 1.158-1.142 1.558-2.804 1.043-4.34-.082-.241-.274-.431-.52-.511-1.547-.504-3.222-.119-4.38 1.005-.416-.969-1.042-1.89-1.855-2.69C5.751.487 3.094-.378.768.153.464.224.226.457.156.757c-.538 2.29.34 4.908 2.29 6.83 1.572 1.548 3.6 2.41 5.546 2.41h.08v3.99H1.963c-.245 0-.477.108-.632.294-.155.186-.218.43-.17.667l.447 2.238h14.56l.447-2.238c.048-.236-.015-.481-.17-.667zM1.716 18.891l1.596 8.171c.075.382.407.658.793.658h8.976c.387 0 .719-.276.793-.658l1.597-8.17H1.716z" transform="translate(129.175 82.051)"/>
        </g>
        <g fill-rule="nonzero">
            <path d="M17.017 3.246c.065-.222-.33-.453-.33-.696 0-1.375-1.119-2.55-2.494-2.55-1.376 0-2.495 1.175-2.495 2.55 0 .243.046.474.11.696L5.66 6.708H0v21.677h28.385V6.708h-5.66l-5.708-3.462zm-4.234 1.36c.402.276.886.439 1.41.439.523 0 1.008-.163 1.41-.44l3.734 2.103H9.048l3.735-2.103zm13.08 21.281H2.721V9.44h23.142v16.447z" transform="translate(86.486 1.663)"/>
            <path d="M23.34 21.66L19.182 18.412 16.887 20.665 15.478 22.041 10.035 17.18 5.045 21.635 5.045 23.34 23.34 23.34z" transform="translate(86.486 1.663)"/>
            <path d="M15.12 18.742L19.182 14.68 23.34 18.838 23.34 11.698 5.045 11.698 5.045 18.632 10.035 12.93z" transform="translate(86.486 1.663)"/>
        </g>
    </g>
</svg>
