<svg xmlns="http://www.w3.org/2000/svg" width="150" height="150" viewBox="0 0 150 150">
    <g fill="#4267A1">
        <path d="M3.507 49.852v38.347H30.35c1.06 0 1.918.859 1.918 1.918h7.67c0-1.06.858-1.918 1.917-1.918h26.843V49.852c0-1.06-.859-1.918-1.918-1.918H5.424c-1.058 0-1.917.859-1.917 1.918zM41.855 93.951H30.35c-1.059 0-1.917-.858-1.917-1.917H0c.815 2.296 2.987 3.832 5.424 3.835H66.78c2.44.006 4.617-1.533 5.425-3.835H43.772c0 1.059-.859 1.917-1.917 1.917z" transform="translate(18 27)"/>
        <path d="M107.045 47.934V1.917c0-1.058-.858-1.917-1.917-1.917H36.102c-1.058 0-1.917.859-1.917 1.917V44.1H66.78c3.177 0 5.753 2.575 5.753 5.752h32.595c1.059 0 1.917-.859 1.917-1.918zM107.285 61.216c1.059 0 1.917.927 1.917 2.07v33.118c0 1.143-.858 2.07-1.917 2.07H91.946c-1.059 0-1.917-.927-1.917-2.07V63.286c0-1.143.858-2.07 1.917-2.07h15.339zm-7.479 31.26c-.945 0-1.712.766-1.712 1.712 0 .945.767 1.712 1.712 1.712.946 0 1.712-.767 1.712-1.712 0-.946-.766-1.712-1.712-1.712zM85.92 63.273h-6.343l-2.738-9.587h-4.306v13.422H85.92v-3.835z" transform="translate(18 27)"/>
    </g>
</svg>
