<svg xmlns="http://www.w3.org/2000/svg" width="150" height="150" viewBox="0 0 150 150">
    <g fill="#4267A1" fill-rule="evenodd" transform="translate(19.18 23.234)">
        <circle cx="54.233" cy="95.41" r="4.017" fill-rule="nonzero"/>
        <path fill-rule="nonzero" d="M28.12 85.107v20.605c.002.966.784 1.748 1.75 1.75h48.726c.965-.002 1.748-.784 1.749-1.75V85.107c-.001-.965-.784-1.748-1.75-1.75H29.87c-.966.002-1.748.785-1.75 1.75zm26.113 2.268c4.437 0 8.034 3.597 8.034 8.035 0 4.437-3.597 8.034-8.034 8.034-4.437 0-8.035-3.597-8.035-8.034.005-4.436 3.6-8.03 8.035-8.035zM96.414 105.453v-6.026H84.362v6.285c0 .594-.091 1.184-.272 1.75h10.315c1.11-.002 2.008-.9 2.009-2.01zM34.147 75.323L74.319 75.323 74.319 79.341 34.147 79.341z"/>
        <ellipse cx="86.371" cy="53.229" fill-rule="nonzero" rx="6.026" ry="2.009"/>
        <path fill-rule="nonzero" d="M0 49.08l7.552 56.638c.136.997.985 1.74 1.991 1.743h14.832c-.18-.565-.272-1.155-.271-1.749V85.107c.003-3.183 2.583-5.763 5.766-5.766h.26v-6.026c0-1.11.899-2.009 2.008-2.009 5.167 0 7.96-2.362 11.191-5.097.923-.78 1.875-1.585 2.909-2.358l1.969-14.77c-.085-12.146-9.949-21.951-22.095-21.965h-4.017C9.949 27.13.085 36.935 0 49.081zm10.043-5.895c0-1.109.9-2.008 2.009-2.008h24.103c1.11 0 2.009.9 2.009 2.008v12.052c0 1.11-.9 2.009-2.009 2.009H12.052c-1.11 0-2.009-.9-2.009-2.009V43.185zM14.423 23.099L22.095 23.099 26.112 23.099 33.784 23.099 32.445 15.065 15.762 15.065z"/>
        <path fill-rule="nonzero" d="M44.19 3.486L30.531 5.262 30.171 7.365 44.19 7.365z" transform="matrix(-1 0 0 1 74.361 0)"/>
        <circle cx="49.169" cy="8.997" r="8.997"/>
        <path fill-rule="nonzero" d="M58.983 65.487c-.434-.639-.725-1.363-.854-2.125-5.825.515-8.933 3.145-12.204 5.913-.809.685-1.625 1.374-2.482 2.031h30.201c-.025-.045-.047-.09-.073-.136-.725-1.278-1.763-1.872-3.27-1.872-5.812 0-9.62-1.282-11.318-3.811zM68.293 31.134L104.449 31.134 104.449 35.151 68.293 35.151zM68.579 39.168l3.506 26.3c2.186.463 4.047 1.888 5.067 3.877.624 1.169 1.022 2.445 1.173 3.762v.006c0 .013.003.027.003.035.005.055.008.11.008.167v6.026h.26c3.183.003 5.763 2.583 5.766 5.766V95.41h12.303l7.499-56.242H68.579zM86.37 59.254c-5.725 0-10.043-2.59-10.043-6.025 0-3.436 4.318-6.026 10.043-6.026 5.724 0 10.043 2.59 10.043 6.026 0 3.435-4.319 6.025-10.043 6.025zM14.06 45.194L34.147 45.194 34.147 53.229 14.06 53.229zM20.086 3.013L28.121 3.013 28.121 11.047 20.086 11.047z"/>
    </g>
</svg>
