<svg xmlns="http://www.w3.org/2000/svg" width="150" height="150" viewBox="0 0 150 150">
    <g fill="none" fill-rule="evenodd">
        <path fill="#4267A1" d="M81.9 32.4c2.485 0 4.5 2.015 4.5 4.5v11.07c-.873-.177-1.775-.27-2.7-.27H64.8c-7.456 0-13.5 6.044-13.5 13.5l.003.31c.165 7.313 6.145 13.19 13.497 13.19h18.9c.925 0 1.827-.093 2.7-.27V85.5c0 2.485-2.015 4.5-4.5 4.5h-72C4.432 90 0 85.568 0 80.1V36.9c0-2.485 2.015-4.5 4.5-4.5h77.4z" transform="translate(30 30)"/>
        <path fill="#4267A1" d="M86.4 50.4c2.485 0 4.5 2.015 4.5 4.5v12.6c0 2.485-2.015 4.5-4.5 4.5H64.8C58.835 72 54 67.165 54 61.2c0-5.965 4.835-10.8 10.8-10.8h21.6zm-21.6 6.3c-2.485 0-4.5 2.015-4.5 4.5s2.015 4.5 4.5 4.5 4.5-2.015 4.5-4.5-2.015-4.5-4.5-4.5z" transform="translate(30 30)"/>
        <path stroke="#4267A1" stroke-width="3.6" d="M74.802 18c2.43 0 4.398 2.015 4.398 4.5v9.9c0 2.485-1.969 4.5-4.398 4.5H11.035c-5.1 0-9.235-4.23-9.235-9.45 0-5.22 4.135-9.45 9.235-9.45h3.937" transform="translate(30 30)"/>
        <path stroke="#4267A1" stroke-width="3.6" d="M1.8 29.7H2.8V53.099999999999994H1.8z" transform="translate(30 30)"/>
        <path fill="#4267A1" d="M65.7 0c2.982 0 5.4 2.418 5.4 5.4v28.8c0 2.982-2.418 5.4-5.4 5.4V10.8c0-2.982-2.418-5.4-5.4-5.4H22.5c0-2.982 2.418-5.4 5.4-5.4h37.8z" transform="translate(30 30)"/>
        <path fill="#4267A1" d="M56.7 9c2.982 0 5.4 2.418 5.4 5.4v28.8c0 2.982-2.418 5.4-5.4 5.4H18.9c-2.982 0-5.4-2.418-5.4-5.4V14.4c0-2.982 2.418-5.4 5.4-5.4h37.8zm-12.133 4.4h-13.58c-1.208 0-2.187.98-2.187 2.187 0 3.55-.953 5.943-2.86 7.178-1.278.829-2.542 1.232-3.79 1.21l-.167.005c-.931.068-1.665.846-1.665 1.795v15.433c0 2.982 2.417 5.4 5.4 5.4h24.735c2.982 0 5.4-2.418 5.4-5.4V25.57c0-.961-.756-1.753-1.717-1.798-1.363-.063-2.728-.54-4.096-1.428-1.942-1.262-3.022-3.499-3.24-6.711l-.005-.147c-.075-1.165-1.044-2.086-2.228-2.086zm-.44 2.7l.042.432c.39 3.64 1.834 6.408 4.4 8.076l.33.208c1.32.807 2.68 1.329 4.067 1.547l.186.026v14.819l-.004.158c-.082 1.418-1.257 2.542-2.695 2.542H25.718l-.16-.005c-1.416-.082-2.54-1.257-2.54-2.695V26.64l.055-.004c1.472-.147 2.929-.693 4.335-1.605l.23-.154c2.486-1.734 3.717-4.673 3.85-8.57l.005-.207h12.634z" transform="translate(30 30)"/>
    </g>
</svg>
