<svg xmlns="http://www.w3.org/2000/svg" width="150" height="150" viewBox="0 0 150 150">
    <g fill="#4267A1" transform="translate(10.298 21.246)">
        <path d="M4.173 79.35l-.028 10.867c-.006 2.495 2.016 4.523 4.516 4.53h.012c2.496 0 4.521-2.015 4.528-4.506l.024-9.224c-3.077-.217-6.165-.867-9.052-1.667zM24.08 79.35c-2.763 1.342-5.779 1.824-8.881 1.802v9.097c0 2.484 1.99 4.498 4.442 4.497 2.452 0 4.44-2.014 4.44-4.498V79.35z"/>
        <circle cx="24.871" cy="7.698" r="7.698"/>
        <path d="M29.752 50.926l-.278.527c-.587 1.118-.478 2.415.17 3.4-1.937 6.233-3.373 11.8-5.323 14.6-3.425 4.916-10.11 5.398-21.673 1.56-1.055-.35-2.194.22-2.545 1.274-.35 1.053.22 2.19 1.276 2.54 9.505 3.155 20.5 5.17 26.247-3.078 2.345-3.367 3.799-9.042 5.813-15.542.82-.254 1.545-.82 1.976-1.64l1.3-2.472c-1.663.16-2.375-.121-6.963-1.169z"/>
        <path d="M36.972 40.203l-12.028-2.75-4.207-13.242 6.733 9.634 1.329-7.842c.478-2.826-1.424-5.505-4.25-5.984l-9.373-1.588c-2.827-.479-5.506 1.424-5.985 4.25-.423 2.497-4.805 28.602-4.805 28.602L4.343 68.08c3.758 1.218 6.684 1.842 8.97 2.077l.044-17.354 1.824.31.002 17.156c4.61.054 5.884-1.776 6.502-2.664.835-1.2 1.648-3.342 2.473-5.88v-8.337l.612-3.617-6.336-1.449c-2.447-.56-4.138-2.669-4.284-5.053l-1.007-16.645 4.896 15.41c.428 1.345 1.534 2.363 2.91 2.678l14.248 3.257c2.14.49 4.28-.847 4.772-2.995.49-2.145-.852-4.28-2.997-4.771zM119.916 48.4l-5.361-28.793c-.284-1.525-1.614-2.632-3.163-2.632H57.639c-1.55 0-2.879 1.107-3.163 2.632l-4.86 26.105-5.545-.875c-.032.379-.088.759-.175 1.14-.501 2.196-1.854 3.976-3.629 5.072l5.803.915c-1.258 2.1-1.985 4.554-1.985 7.18V75.06c0 2.89 2.338 5.231 5.222 5.231h1.356v6.838c0 4.207 3.404 7.618 7.605 7.618 4.2 0 7.605-3.41 7.605-7.618V80.29h6.871v2.518c0 1.478 1.196 2.677 2.672 2.677h18.2c1.476 0 2.672-1.198 2.672-2.677V80.29h6.872v6.838c0 4.207 3.404 7.618 7.605 7.618 4.2 0 7.605-3.41 7.605-7.618V80.29h1.355c2.884 0 5.222-2.342 5.222-5.23V59.143c-.001-4.32-1.958-8.18-5.031-10.744zm-61.85 21.368c-3.685 0-6.672-2.994-6.672-6.687s2.987-6.687 6.671-6.687c3.685 0 6.672 2.994 6.672 6.687 0 3.694-2.987 6.687-6.672 6.687zm33.951 5.237H77.013c-1.34 0-2.427-1.088-2.427-2.431s1.087-2.432 2.427-2.432h15.004c1.341 0 2.428 1.089 2.428 2.432s-1.087 2.431-2.428 2.431zm4.009-9.265h-23.02c-1.342 0-2.428-1.089-2.428-2.432s1.087-2.432 2.427-2.432h23.02c1.341 0 2.428 1.09 2.428 2.432 0 1.343-1.087 2.432-2.427 2.432zm-3.7-21.205c.61-2.246 2.655-3.905 5.088-3.905 2.433 0 4.477 1.66 5.088 3.905H92.326zm5.088-9.277c-5.4 0-9.87 4.05-10.551 9.277H56.38l3.932-21.114h17.823c-.419.695-.37 1.256-.37 1.828 0 1.416 1.146 2.563 2.56 2.563h8.381c1.413 0 2.56-1.147 2.56-2.563 0-.577.047-1.134-.37-1.828h17.823l3.931 21.114h-4.685c-.681-5.227-5.15-9.277-10.55-9.277zm13.552 34.51c-3.685 0-6.672-2.994-6.672-6.687s2.987-6.687 6.672-6.687c3.684 0 6.671 2.994 6.671 6.687 0 3.694-2.987 6.687-6.671 6.687z"/>
    </g>
</svg>
