<svg xmlns="http://www.w3.org/2000/svg" width="150" height="150" viewBox="0 0 150 150">
    <g fill="#4267A1">
        <path d="M0 104.745v11.907h11.907c-.897-6.167-5.74-11.01-11.907-11.907zM11.907 72.405H0V84.31c6.166-.896 11.01-5.74 11.907-11.906z" transform="translate(17 17)"/>
        <path d="M60.458 72.405H15.969C15.017 80.798 8.394 87.422 0 88.374v12.309c8.394.952 15.017 7.575 15.97 15.969h44.488c.952-8.394 7.575-15.017 15.97-15.97V88.375c-8.395-.952-15.018-7.576-15.97-15.97zM20.112 96.54h-8.045c-1.11 0-2.01-.901-2.01-2.012 0-1.11.9-2.011 2.01-2.011h8.045c1.111 0 2.012.9 2.012 2.011 0 1.111-.9 2.012-2.012 2.012zm16.09-4.023h4.023c3.332 0 6.034 2.701 6.034 6.034 0 3.332-2.702 6.033-6.034 6.033v2.012c0 1.11-.9 2.011-2.011 2.011-1.111 0-2.012-.9-2.012-2.011v-2.012c-3.332 0-6.033-2.7-6.033-6.033 0-1.111.9-2.011 2.01-2.011 1.112 0 2.012.9 2.012 2.01 0 1.112.9 2.012 2.011 2.012h4.023c1.11 0 2.011-.9 2.011-2.011 0-1.111-.9-2.011-2.011-2.011h-4.023c-3.332 0-6.033-2.702-6.033-6.034 0-3.333 2.701-6.034 6.033-6.034v-2.011c0-1.11.9-2.011 2.012-2.011 1.11 0 2.01.9 2.01 2.01v2.012c3.333 0 6.035 2.701 6.035 6.034 0 1.11-.9 2.011-2.012 2.011-1.11 0-2.011-.9-2.011-2.011 0-1.111-.9-2.011-2.011-2.011h-4.023c-1.11 0-2.01.9-2.01 2.01 0 1.112.9 2.012 2.01 2.012zm30.169 2.011c0 1.111-.9 2.012-2.011 2.012h-8.045c-1.111 0-2.012-.901-2.012-2.012 0-1.11.9-2.011 2.012-2.011h8.045c1.11 0 2.01.9 2.01 2.011z" transform="translate(17 17)"/>
        <path d="M64.52 116.652h11.907v-11.907c-6.166.897-11.01 5.74-11.906 11.907zM40.225 36.765c-1.577.91-2.346 2.767-1.874 4.525.47 1.759 2.064 2.982 3.885 2.982 1.82 0 3.414-1.223 3.885-2.982.472-1.758-.297-3.614-1.874-4.525v3.46c0 1.11-.9 2.011-2.011 2.011-1.11 0-2.011-.9-2.011-2.011v-3.46zM76.427 84.311V72.405H64.521c.896 6.166 5.74 11.01 11.906 11.906zM80.45 36.765c-1.577.91-2.346 2.767-1.875 4.525.472 1.759 2.065 2.982 3.886 2.982 1.82 0 3.414-1.223 3.885-2.982.471-1.758-.297-3.614-1.874-4.525v3.46c0 1.11-.9 2.011-2.011 2.011-1.11 0-2.011-.9-2.011-2.011v-3.46z" transform="translate(17 17)"/>
        <path d="M8.045 68.382h70.393c1.111 0 2.012.9 2.012 2.011v38.214h4.022V64.36H8.045v4.022zM104.584 28.157v66.371c.003 3.788-1.528 7.415-4.243 10.056h2.232c5.554 0 10.056-4.502 10.056-10.056v-66.37h-8.045z" transform="translate(17 17)"/>
        <path d="M82.46 0c-3.497 0-6.945.833-10.055 2.434-6.855-3.515-15.045-3.207-21.616.814-6.57 4.02-10.574 11.172-10.564 18.876v6.033h4.022v-6.033c-.008-5.88 2.843-11.395 7.644-14.788 4.801-3.393 10.952-4.239 16.491-2.268-5.094 4.199-8.045 10.454-8.045 17.056v6.033h-16.09v4.304c3.923 1.013 6.48 4.785 5.97 8.804-.51 4.018-3.93 7.03-7.981 7.03s-7.47-3.012-7.98-7.03c-.511-4.02 2.046-7.79 5.969-8.804v-4.304h-16.09v32.18h62.348c1.111 0 2.012.9 2.012 2.011v42.236h2.01c5.555 0 10.057-4.502 10.057-10.056v-66.37h-16.09v4.303c3.923 1.013 6.48 4.785 5.97 8.804-.51 4.018-3.93 7.03-7.981 7.03s-7.47-3.012-7.981-7.03c-.51-4.02 2.047-7.79 5.97-8.804v-4.304H64.36v-6.033c.005-6.043 3.023-11.685 8.045-15.044 5.022 3.36 8.039 9.001 8.045 15.044v6.033h4.022v-6.033c0-6.602-2.95-12.857-8.045-17.056 5.539-1.97 11.69-1.125 16.491 2.268s7.653 8.909 7.644 14.788v6.033h4.022v-6.033C104.577 9.908 94.676.008 82.461-.001z" transform="translate(17 17)"/>
    </g>
</svg>
