<svg xmlns="http://www.w3.org/2000/svg" width="150" height="150" viewBox="0 0 150 150">
    <g fill="none" fill-rule="evenodd">
        <path fill="#4267A1" fill-rule="nonzero" d="M73.114 118.518L55.881 80.523c-.554-1.222-1.67-3.081-2.488-4.145l-3.146-4.093c-.674-.876-.765-2.42-.2-3.37.17-.285 4.158-7.003 4.475-9.593.303-2.475.603-7.558.606-7.61.071-1.204.747-3.032 1.477-3.992l3.955-5.204c.86-1.13 1.566-2.98 1.61-4.21.022-.66-.216-1.05-.42-1.262-.261-.27-.618-.414-1.032-.414-.4 0-.829.132-1.274.391l-20.966 12.23c-.464.27-1.122.426-1.803.426-.681 0-1.338-.155-1.803-.426L13.906 37.02c-.445-.26-.874-.391-1.274-.391-.414 0-.77.143-1.032.414-.204.211-.442.602-.42 1.262.044 1.23.751 3.08 1.61 4.21l3.955 5.204c.73.96 1.407 2.789 1.478 3.993.003.048.288 4.836.557 7.219.304 2.685 4.366 9.672 4.539 9.968.558.957.46 2.507-.215 3.385l-3.147 4.093c-.817 1.064-1.934 2.923-2.488 4.145L.236 118.518c-.328.724-.314 1.453.04 2 .353.549 1.011.863 1.805.863h.908c1.219 0 3.149.5 4.215 1.09l3.67 2.033c.626.346 1.449.537 2.319.537.87 0 1.693-.191 2.318-.537l3.67-2.033c.474-.263 1.144-.413 1.84-.413.694 0 1.364.15 1.838.413l3.67 2.033c.626.346 1.449.537 2.319.537.87 0 1.693-.191 2.318-.537l3.67-2.033c.475-.263 1.145-.413 1.84-.413.694 0 1.364.15 1.838.413l3.67 2.033c.626.346 1.45.537 2.319.537.87 0 1.693-.191 2.318-.537l3.67-2.033c.475-.263 1.145-.413 1.84-.413.694 0 1.364.15 1.838.413l3.67 2.033c.626.346 1.45.537 2.319.537.87 0 1.693-.191 2.318-.537l3.67-2.033c1.067-.59 2.997-1.09 4.216-1.09h.907c.795 0 1.453-.314 1.806-.862s.367-1.278.04-2zM71.386 34.003c-.87-3.3-3.52-3.264-11.607-7.08-6.934-3.274-12.511-8.954-15.235-12.07-1.038-1.188-2.483-2.205-4.67-2.205h-1.77l.008-3.18c.082-.118.478-.36.74-.52 1.035-.63 2.765-1.685 2.765-4.229 0-2.6-2.114-4.715-4.714-4.715-2.6 0-4.714 2.115-4.714 4.715 0 .687.556 1.244 1.243 1.244.686 0 1.243-.557 1.243-1.244 0-1.228.999-2.228 2.228-2.228 1.227 0 2.227 1 2.227 2.228 0 1.095-.569 1.494-1.572 2.107-.802.49-1.899 1.158-1.899 2.526v3.296h-1.5c-2.026 0-3.63 1.016-4.668 2.205-2.725 3.116-8.301 8.797-15.235 12.07C6.168 30.74 3.518 30.7 2.646 34.006c-.404 1.527.826 2.357 2.271 1.725 4.979-2.17 16.283-7.52 27.497-15.707 0 0 2.14-1.824 4.44-1.824h.323c2.301 0 4.44 1.824 4.44 1.824 11.217 8.187 22.519 13.537 27.498 15.707 1.445.628 2.673-.202 2.27-1.728z" transform="translate(38 12)"/>
        <path stroke="#4267A1" stroke-width="1.188" d="M16.128 29.201L16.402 43.548" transform="translate(38 12)"/>
        <path stroke="#4267A1" stroke-width="1.188" d="M56.52 28.211L56.794 42.558" transform="translate(38 12) matrix(-1 0 0 1 113.315 0)"/>
    </g>
</svg>
