<svg xmlns="http://www.w3.org/2000/svg" width="760" height="760" viewBox="0 0 760 760">
    <g fill="none" fill-rule="evenodd">
        <path fill="#4267A1" d="M204.5 409C95.079 409 5.73 323.062.265 214.998l101.937-.111C105.592 314.284 151.216 393 207 393c55.827 0 101.478-78.838 104.806-178.344l96.951-.109C403.52 322.823 314.073 409 204.5 409zM197 214.78v156.928c-38.026-9.808-71.801-74.4-74.786-156.843L197 214.78zm20 156.928v-156.95l74.793-.08c-2.94 82.531-36.738 147.214-74.792 157.03zM204.5 0c109.759 0 199.321 86.469 204.283 195.002l-96.872.105C309.624 93.833 263.529 13 207 13c-56.572 0-102.694 80.956-104.916 182.338L.197 195.45C4.932 86.707 94.59 0 204.5 0zM197 34.292v160.943l-74.91.082c1.972-84.433 36.244-151.052 74.91-161.025zm20 0c38.638 9.967 72.887 76.495 74.906 160.839l-74.905.082V34.292z" transform="translate(20 100)"/>
        <g>
            <path fill="#4267A1" d="M494 0c9.941 0 18 8.059 18 18v322c0 9.941-8.059 18-18 18H18c-9.941 0-18-8.059-18-18V18C0 8.059 8.059 0 18 0h476zM232.06 202.92h-69.55v16.64h26V296h17.55v-76.44h26v-16.64zm38.362 0h-18.98l32.89 93.08h18.46l33.93-93.08h-18.98l-20.02 56.16-3.64 11.83h-1.04l-3.38-11.83-19.24-56.16zM250.102 124c-7.731 0-14 6.268-14 14s6.269 14 14 14c7.733 0 14-6.268 14-14s-6.267-14-14-14zm-1-39c-13.925 0-26.899 6.196-37.725 17.808-3.766 4.04-3.544 10.367.495 14.133 4.04 3.766 10.368 3.545 14.134-.495C233.208 108.721 241 105 249.103 105c8.352 0 17.177 4.087 24.677 11.951 3.812 3.997 10.142 4.147 14.138.336 3.997-3.812 4.147-10.142.336-14.138C277.114 91.467 263.147 85 249.103 85zm0-37c-25.025 0-48.251 10.813-63.734 29.101-3.569 4.215-3.045 10.525 1.17 14.094 4.216 3.568 10.526 3.044 14.094-1.17C212.322 76.215 229.97 68 249.102 68c19.909 0 38.19 8.901 49.81 23.664 3.417 4.34 9.704 5.089 14.044 1.673 4.34-3.416 5.088-9.704 1.672-14.043C299.22 59.72 275.15 48 249.103 48z" transform="translate(20 100) translate(218 215)"/>
            <path stroke="#4267A1" stroke-linecap="round" stroke-width="24" d="M131.39 329L90.882 379" transform="translate(20 100) translate(218 215)"/>
            <path stroke="#4267A1" stroke-linecap="round" stroke-width="24" d="M420.388 329L379.88 379" transform="translate(20 100) translate(218 215) matrix(-1 0 0 1 800.268 0)"/>
        </g>
    </g>
</svg>
