<svg xmlns="http://www.w3.org/2000/svg" width="150" height="150" viewBox="0 0 150 150">
    <g fill="#4267A1">
        <g>
            <path d="M16.186 81.993H35.53V66.54c-6.317-.533-10.111-2.322-13.524-3.932-2.972-1.401-1.43-2.653-5.82-3.117v22.502z" transform="translate(7.832 24.108) translate(49.94 3.75)"/>
            <path d="M34.642 29.016l.993 9.932c6.844 2.468 11.738 9.02 11.738 16.716v2.938c-2.8 1.821-2.982 2.676-2.994 6.693V94.55H9.921c3.205-1.467 5.561-4.836 5.995-8.882H38.49V61.585H35.53c-5.223 0-7.677-1.227-10.52-2.648-2.354-1.177-4.95-2.475-9.02-3.015l-.002-10.837c0-3.953-1.413-7.672-3.827-10.359l.57-5.71h21.91zM7.303 63.74v14.244c0 1.659-.518 3.182-1.38 4.372V59.37c.862 1.19 1.38 2.713 1.38 4.371zM13.324 26.45L34.05 26.45 33.457 20.528 13.916 20.528zM47.507 17.765c-.088-.98-.134-1.966-.134-2.96V0H14.804C6.641 0 0 6.641 0 14.804v2.961h47.507zM42.479 20.528c1.619 6.887 5.119 13.208 10.246 18.335l4.188-4.187c-3.998-3.998-6.826-8.851-8.318-14.148h-6.116zM50.926 1.382L56.848 1.382 56.848 7.303 50.926 7.303z" transform="translate(7.832 24.108) translate(49.94 3.75)"/>
        </g>
        <path d="M47.946 64.865H14.823c-.445 0-.808.398-.808.888v17.174c0 .49.363.887.808.887h33.123c.446 0 .81-.398.81-.887V65.753c0-.49-.364-.888-.81-.888z" transform="translate(7.832 24.108)"/>
        <path d="M55.325 36.75l-16.592-9.104c-2.984-1.637-5.223-4.257-6.405-7.33H9.194c-.18 2.458-.998 4.834-2.385 6.887l-4.29 6.355C.94 35.896.096 38.652.096 41.473v46.048c0 5.953 4.83 10.778 10.788 10.778h41.001c5.958 0 10.788-4.825 10.788-10.778V49.156c0-5.165-2.816-9.92-7.348-12.407zm-27.2.099c0-.884.716-1.6 1.6-1.6.257 0 .51.06.737.178l15.87 8.21c.976.505 1.589 1.512 1.589 2.61v1.532c0 1.623-1.316 2.939-2.939 2.939H31.063c-1.623 0-2.938-1.316-2.938-2.939V36.85zm24.821 44.48c0 3.729-3.034 6.763-6.763 6.763H16.587c-3.73 0-6.764-3.034-6.764-6.764V67.351c0-3.73 3.035-6.763 6.764-6.763h29.596c3.729 0 6.763 3.034 6.763 6.763v13.977zM8.559 17.016h23.118c1.668 0 3.02-1.352 3.02-3.02 0-1.669-1.352-3.021-3.02-3.021h-.292V2.777C31.385 1.243 30.142 0 28.608 0h-16.6c-1.533 0-2.776 1.243-2.776 2.777v8.198h-.673c-1.668 0-3.02 1.353-3.02 3.02 0 1.669 1.352 3.02 3.02 3.02z" transform="translate(7.832 24.108)"/>
        <g>
            <path d="M18.57 0C8.772 0 .83 3.82.83 8.533c0 4.713 7.942 8.534 17.74 8.534 9.798 0 17.741-3.82 17.741-8.534C36.311 3.821 28.368 0 18.571 0zm4.758 11.807c-1.295.622-2.984.965-4.758.965-1.773 0-3.462-.343-4.757-.965-2.193-1.055-2.52-2.504-2.52-3.274s.327-2.218 2.52-3.273c1.294-.622 2.984-.965 4.757-.965 1.774 0 3.463.343 4.758.965 2.193 1.055 2.52 2.504 2.52 3.273 0 .77-.327 2.218-2.52 3.274z" transform="translate(7.832 24.108) translate(96.72 60.006)"/>
            <path d="M18.57 7.138c-2.891 0-4.352 1.051-4.433 1.395.081.344 1.542 1.395 4.433 1.395 2.892 0 4.352-1.05 4.434-1.395-.082-.343-1.542-1.395-4.434-1.395zM37.052 13.733c-1.147 1.304-2.73 2.447-4.705 3.397-3.727 1.793-8.62 2.78-13.777 2.78-1.951 0-3.865-.141-5.692-.414v3.174h-2.844v-3.722c-1.908-.455-3.677-1.065-5.241-1.818-1.975-.95-3.558-2.093-4.705-3.397l-.003-.003V38.88c0 2.769 2.061 5.285 5.804 7.085 3.41 1.64 7.915 2.544 12.681 2.544 4.767 0 9.27-.903 12.682-2.544 3.742-1.8 5.803-4.316 5.803-7.085V13.73l-.003.003zm-24.174 33.04h-2.844v-3.607h2.844v3.606zm0-6.07h-2.844v-3.606h2.844v3.607zm0-6.067h-2.844v-3.607h2.844v3.607zm0-6.069h-2.844V24.96h2.844v3.607z" transform="translate(7.832 24.108) translate(96.72 60.006)"/>
        </g>
    </g>
</svg>
