<svg xmlns="http://www.w3.org/2000/svg" width="760" height="760" viewBox="0 0 760 760">
    <g fill="none" fill-rule="evenodd">
        <path fill="#4267A1" d="M426.2 103.446L647 265.635v412.707c0 2.209-350.363 0-440.4 0l.003-26.84C232.773 625.746 249 589.915 249 550.295c0-39.621-16.227-75.452-42.397-101.21l-.003-184.526 219.6-161.112zm-37 361.648H282.8c-2.689 0-4.882 2.122-4.995 4.783l-.005.217v183c0 2.688 2.122 4.881 4.783 4.995l.217.005h106.4c2.689 0 4.882-2.123 4.995-4.783l.005-.217v-74.536c-.654.09-1.322.136-2 .136-8.284 0-15-6.895-15-15.4 0-8.506 6.716-15.4 15-15.4.678 0 1.346.046 2 .135v-77.935c0-2.762-2.239-5-5-5zm-160.2 85.2c0 26.252-8.292 50.568-22.4 70.472V479.822c14.108 19.903 22.4 44.219 22.4 70.472zM575.6 527H459.2v61.494c0 2.688 2.122 4.881 4.783 4.995l.217.005h106.4c2.689 0 4.882-2.123 4.995-4.783l.005-.217V527zm-5-61.906H464.2c-2.689 0-4.882 2.122-4.995 4.783l-.005.217V507h116.4v-36.906c0-2.762-2.239-5-5-5zM394.2 342.7H277.8v62.194c0 2.688 2.122 4.881 4.783 4.995l.217.005h106.4c2.689 0 4.882-2.123 4.995-4.783l.005-.217V342.7zm65 .03v62.164c0 2.688 2.122 4.881 4.783 4.995l.217.005h106.4c2.689 0 4.882-2.123 4.995-4.783l.005-.217v-61.217l-116.4-.946zm111.4-61.236H464.2c-2.689 0-4.882 2.122-4.995 4.783l-.005.217v35.835l116.4.947v-36.782c0-2.762-2.239-5-5-5zm-181.4 0H282.8c-2.689 0-4.882 2.122-4.995 4.783l-.005.217V322.3h116.4v-35.806c0-2.762-2.239-5-5-5z" transform="translate(30 -3)"/>
        <path fill="#4367A1" d="M432.782 5.403L671.99 184.981c2.524 1.894 4.005 4.868 3.996 8.024l-.143 52.827c-.012 4.418-3.604 7.99-8.022 7.978-1.699-.004-3.352-.55-4.72-1.556L426.2 77.897 190.6 252.134c-3.552 2.627-8.562 1.877-11.189-1.676-1.023-1.382-1.572-3.058-1.568-4.778l.143-52.714c.009-3.134 1.486-6.082 3.99-7.965L420.768 5.408c3.557-2.675 8.455-2.677 12.014-.005z" transform="translate(30 -3)"/>
        <path fill="#4267A1" d="M243.8 42.494h56.4c3.314 0 6 2.686 6 6v15.168c0 1.906-.906 3.7-2.441 4.83l-56.4 41.553c-2.668 1.965-6.424 1.396-8.39-1.272-.76-1.03-1.169-2.278-1.169-3.559v-56.72c0-3.314 2.686-6 6-6zM115.5 434.294c63.789 0 115.5 51.71 115.5 115.5 0 63.789-51.711 115.5-115.5 115.5S0 613.583 0 549.794c0-63.79 51.711-115.5 115.5-115.5zm8.31 59.786h-11.57v11.18c-7.453.867-13.412 3.575-17.875 8.125-4.463 4.55-6.695 9.988-6.695 16.315 0 11.481 7.624 20.252 22.871 26.312l.529.208 1.17.39v24.83c-3.207-1.04-5.98-2.903-8.32-5.59-2.217-2.545-3.811-5.48-4.784-8.803l-.156-.557-14.95 6.11c2.08 7.28 5.633 13.043 10.66 17.29 4.87 4.114 10.512 6.683 16.927 7.706l.623.094V609h11.57v-11.44c7.02-1.04 12.87-3.813 17.55-8.32 4.68-4.507 7.02-10.443 7.02-17.81 0-6.5-2.015-11.7-6.045-15.6-3.915-3.789-9.854-7.373-17.817-10.752l-.708-.298v-23.27c2.08.78 3.813 1.95 5.2 3.51 1.28 1.44 2.228 3.028 2.843 4.763l.147.437 14.56-6.5c-1.387-4.247-3.943-8.082-7.67-11.505-3.606-3.313-8.43-5.51-14.472-6.59l-.608-.105v-11.44zm0 67.34c2.947 1.473 5.005 2.947 6.175 4.42 1.17 1.473 1.755 3.38 1.755 5.72s-.715 4.355-2.145 6.045c-1.43 1.69-3.358 2.968-5.785 3.835v-20.02zm-11.57-40.69v18.98c-3.033-1.56-5.222-3.098-6.565-4.615-1.343-1.517-2.015-3.315-2.015-5.395 0-2.167.78-4.03 2.34-5.59 1.468-1.468 3.397-2.553 5.787-3.253l.453-.127z" transform="translate(30 -3)"/>
    </g>
</svg>
