<svg xmlns="http://www.w3.org/2000/svg" width="150" height="150" viewBox="0 0 150 150">
    <g fill="#4267A1">
        <path d="M.11 48.87l1.853.192c.257.017 26.132 2.095 48.559 2.137h.678c2.595 0 5.241-.027 7.892-.077.236.803.518 1.473.846 2.014.855 1.411 2.366 2.501 4.532 3.271-.21 2.645-.075 5.121.4 7.428-4.701.106-9.382.165-13.67.165h-.572c-9.252-.012-20.225-.29-29.295-.715v2.848c0 3.452-2.748 6.275-6.17 6.396l-.23.004H6.4c-3.452 0-6.275-2.748-6.396-6.17L0 66.132V57.6c0-.687.325-1.298.829-1.688-.365-2.083-.57-4.402-.683-6.392l-.035-.65zM51.32 0c2.883.015 21.333.545 24.456 2.444 1.993 1.212 6.167 9.015 8.929 14.623h7.028c1.178 0 2.134.955 2.134 2.133 0 1.126-.875 2.05-1.981 2.128l-.153.005-5 .001c.17.371.309.686.415.934.552.113 1.636.145 2.328.166l.512.015c2.134.07 4.26.243 5.474 1.725l.141.184.73 1.067c.928 1.388 1.426 2.084 2.346 2.372-19.422.099-30.649 2.955-33.679 8.57-.358.663-.746 1.34-1.163 2.032h-27.57c-1.178 0-2.134.956-2.134 2.134 0 1.126.875 2.05 1.981 2.128l.153.005h24.75c-.623.87-1.285 1.759-1.986 2.665-.347.448-.557.98-.613 1.535-2.425.043-4.843.067-7.218.067-7.036 0-14.447-.209-21.312-.495.055-1.668-.051-5.952-2.313-8.397-1.075-1.16-2.496-1.775-4.108-1.775-4.63 0-18.22-2.01-18.673-2.068h-.011L.567 33.142c.508-3.119 1.425-4.834 3.098-5.325.9-.26 1.395-.892 2.24-2.146l.162-.243.73-1.07c1.275-1.78 3.742-1.853 6.122-1.92.646-.02 1.63-.05 2.212-.146l.12-.024.067-.154c.096-.22.213-.482.348-.781h-5c-1.177 0-2.133-.957-2.133-2.134 0-1.127.875-2.05 1.981-2.128l.153-.006 7.028.001c2.761-5.609 6.936-13.414 8.929-14.623C29.747.544 48.197.015 51.08 0h.24zM.15 37.431l3.8.947c.59.086 14.482 2.155 19.517 2.155.426 0 .708.115.972.401 1.012 1.092 1.216 3.776 1.174 5.316C12.76 45.64 2.726 44.84 2.36 44.81h-.009L0 44.564c.004-2.744.043-5.112.15-7.134zM51.53 4.267h-.667c-7.373.03-20.29 1.002-22.068 1.85-1.116.985-4.952 8.097-7.465 13.146-.005.225-.046.44-.117.643 6.71-1.556 18.071-2.84 29.986-2.84l.561.001c11.71.04 22.82 1.308 29.426 2.838-.059-.165-.097-.34-.113-.522l-.005-.112c-2.524-5.056-6.398-12.2-7.614-13.255-1.606-.737-14.163-1.69-21.585-1.747l-.339-.002z" transform="translate(3 45.134)"/>
        <g>
            <path d="M18.7 27.67h16.48c-.978-1.538-1.6-3.32-1.6-5.276 0-1.541.386-3 1.021-4.324h-20.7c-2.651 0-4.8 2.149-4.8 4.8v2.317C5.368 27.051 2.158 29.944 0 33.665l4.153 2.41c3.005-5.185 8.58-8.405 14.548-8.405zM31.72 32.47l-1.055 4.209c-2.229-2.592-5.501-4.21-9.084-4.21-6.617 0-12 5.384-12 12 0 6.617 5.383 12 12 12 5.794 0 10.642-4.129 11.757-9.6h10.77c4.897 0 9.425-2.927 11.249-7.44l2.853-6.96H31.72zm-10.14 19.2c-3.97 0-7.2-3.23-7.2-7.2s3.23-7.2 7.2-7.2c3.056 0 5.697 1.969 6.714 4.8h-9.113v4.798h9.158c-.994 2.788-3.633 4.802-6.758 4.802z" transform="translate(3 45.134) translate(63 15.866)"/>
            <path d="M69.9 32.47c-.479 0-.96.096-1.44.144l-3.215-9.744h7.056V8.47h-7.2c-1.584 0-3.024.528-4.224 1.392L59.34 5.094c-1.152-3.456-4.656-5.52-8.208-4.8l-5.712 1.152.96 4.704 5.664-1.152c1.2-.192 2.4.48 2.736 1.632l2.592 7.792c-.42 0-.883.084-1.584.192-.48.097-14.029 2.762-13.184 2.592-2.448.528-4.224 2.688-4.224 5.184 0 2.928 2.352 5.28 5.28 5.28h13.76c1.47 0 2.81-.601 3.792-1.585L63.9 34.15c-3.552 2.065-6 5.905-6 10.32 0 6.625 5.376 12 12 12s12-5.375 12-12c0-6.623-5.376-12-12-12zm0 19.2c-3.983 0-7.2-3.216-7.2-7.2 0-2.304 1.105-4.32 2.785-5.664l2.16 6.432 4.512-1.536-2.112-6.432c3.888.096 7.056 3.264 7.056 7.2 0 3.984-3.216 7.2-7.2 7.2z" transform="translate(3 45.134) translate(63 15.866)"/>
        </g>
    </g>
</svg>
