<svg xmlns="http://www.w3.org/2000/svg" width="150" height="150" viewBox="0 0 150 150">
    <g fill="#4267A1" fill-rule="evenodd">
        <g fill-rule="nonzero">
            <path d="M53.56 0h4.755c.959 0 1.737.778 1.737 1.737v48.876h-8.23V1.737c0-.96.779-1.737 1.738-1.737zM68.302 15.778h4.755c.96 0 1.737.778 1.737 1.737v33.098h-8.229V17.515c0-.959.778-1.737 1.737-1.737zM87.8 15.778h-4.755c-.959 0-1.737.778-1.737 1.737v28.881l8.229-7.648V17.515c0-.959-.778-1.737-1.737-1.737zM43.572 15.778h-4.755c-.96 0-1.737.778-1.737 1.737v21.233l8.229 7.648v-28.88c0-.96-.778-1.738-1.737-1.738zM1.737 100.177H46.742v8.229H1.737c-.96 0-1.737-.778-1.737-1.737v-4.755c0-.96.777-1.737 1.737-1.737z" transform="translate(21.649 17.313) translate(.045)"/>
            <path d="M79.331 54.363L47.286 54.363 31.042 39.265 31.042 91.876 63.308 67.654 95.576 91.877 95.576 39.265z" transform="translate(21.649 17.313) translate(.045)"/>
            <path d="M33.59 95.637h38.596v12.769h21.416c1.09 0 1.974-.884 1.974-1.974v-8.385L63.308 73.825 33.59 95.637z" transform="translate(21.649 17.313) translate(.045)"/>
            <path d="M53.65 100.177h13.601c.218 0 .395.177.395.395v7.439c0 .218-.177.395-.395.395H53.255v-7.834c0-.218.177-.395.395-.395z" transform="translate(21.649 17.313) translate(.045)"/>
        </g>
        <path d="M10.364 42.87c-1.942 0-11.694 13.117-1.891 24.028 9.802 10.91-10.207 26.647-7.088 26.647 3.12 0 23.732-20.664 13.604-29.173-10.128-8.509-2.684-21.502-4.625-21.502z" transform="translate(21.649 17.313)"/>
    </g>
</svg>
