<svg xmlns="http://www.w3.org/2000/svg" width="150" height="150" viewBox="0 0 150 150">
    <g fill="#4267A1" transform="translate(21.155 19.78)">
        <circle cx="44.253" cy="102.419" r="1.988"/>
        <circle cx="44.253" cy="86.517" r="1.988"/>
        <circle cx="60.363" cy="102.419" r="1.988"/>
        <circle cx="76.474" cy="102.419" r="1.988"/>
        <circle cx="60.363" cy="86.517" r="1.988"/>
        <circle cx="28.142" cy="102.419" r="1.988"/>
        <path d="M104.616 76.37H92.48c1.338 1.733 2.067 3.86 2.073 6.052v22.194h4.025c3.33-.01 6.028-2.714 6.038-6.053V76.37z"/>
        <circle cx="28.142" cy="86.517" r="1.988"/>
        <path d="M80.58 54.165L80.58 48.123 76.553 48.123 76.553 54.165 70.511 54.165 70.511 58.193 76.553 58.193 76.553 64.234 80.58 64.234 80.58 58.193 86.622 58.193 86.622 54.165z"/>
        <path d="M104.616 61.338c0-7.24-1.344-14.417-3.963-21.165H56.27c-2.62 6.748-3.963 13.925-3.963 21.165v11.056h52.308V61.338zm-14.083-1.027c0 1.112-.9 2.014-2.012 2.014h-4.024v4.028c0 1.112-.9 2.013-2.011 2.013h-8.048c-1.11 0-2.012-.901-2.012-2.013v-4.028h-4.023c-1.111 0-2.012-.902-2.012-2.014v-8.055c0-1.113.9-2.014 2.012-2.014h4.023v-4.028c0-1.112.901-2.014 2.012-2.014h8.048c1.11 0 2.011.902 2.011 2.014v4.028h4.024c1.111 0 2.012.901 2.012 2.014v8.055z"/>
        <circle cx="76.474" cy="86.517" r="1.988"/>
        <path d="M88.592 0H68.541c-1.108 0-2.005.89-2.005 1.988V7.95h24.061V1.988C90.597.89 89.7 0 88.592 0zM0 84.53v5.963c0 1.098.9 1.987 2.009 1.987h8.034v-7.95H0zM20.176 72.324h8.07v-16.04H0v24.061h10.29c.97-4.661 5.096-8.008 9.886-8.02zm-16.14-12.03h18.158c1.114 0 2.017.897 2.017 2.005 0 1.107-.903 2.005-2.017 2.005H4.035c-1.114 0-2.017-.898-2.017-2.005 0-1.108.903-2.005 2.017-2.005zm0 12.03c-1.115 0-2.018-.897-2.018-2.005 0-1.107.903-2.005 2.017-2.005h10.088c1.114 0 2.018.898 2.018 2.005 0 1.108-.904 2.005-2.018 2.005H4.035zM98.967 36.197c-2.406-5.042-5.516-9.714-9.237-13.875l-2.008-2.236H69.411l-2.008 2.236c-3.721 4.16-6.831 8.833-9.237 13.875h40.8z"/>
        <path d="M0 52.308h30.13c1.109 0 2.008.9 2.008 2.009v18.077h8.035V50.3c.01-2.66-1.047-5.214-2.933-7.09-1.966-1.9-4.598-2.952-7.332-2.933-3.228-.13-5.785-2.774-5.805-6.006v-2.048H16.07v2.069c-.013 3.158-2.454 5.775-5.604 6.005C4.298 40.718 0 44.836 0 50.3v2.009zM26.232 20.086H14.15c-1.112 0-2.014.89-2.014 1.988v5.963h16.111v-5.963c0-1.098-.901-1.988-2.014-1.988zM70.511 12.135L86.622 12.135 86.622 16.111 70.511 16.111zM90.597 82.402c-.01-3.327-2.703-6.022-6.029-6.032H20.257c-3.326.01-6.02 2.705-6.03 6.032v24.132c.01 3.328 2.704 6.023 6.03 6.033h64.311c3.326-.01 6.02-2.705 6.03-6.033V82.402zm-62.301 26.143c-3.33 0-6.03-2.701-6.03-6.033 0-3.332 2.7-6.033 6.03-6.033s6.029 2.701 6.029 6.033c0 3.332-2.7 6.033-6.03 6.033zm0-16.088c-2.439 0-4.637-1.47-5.57-3.724-.934-2.254-.418-4.85 1.307-6.575 1.724-1.725 4.317-2.241 6.57-1.307 2.253.933 3.722 3.133 3.722 5.573 0 3.332-2.7 6.033-6.03 6.033zm16.078 16.088c-3.33 0-6.03-2.701-6.03-6.033 0-3.332 2.7-6.033 6.03-6.033s6.029 2.701 6.029 6.033c0 3.332-2.7 6.033-6.03 6.033zm0-16.088c-2.439 0-4.637-1.47-5.57-3.724-.934-2.254-.418-4.85 1.306-6.575 1.725-1.725 4.318-2.241 6.57-1.307 2.254.933 3.723 3.133 3.723 5.573 0 3.332-2.7 6.033-6.03 6.033zm16.077 16.088c-3.33 0-6.029-2.701-6.029-6.033 0-3.332 2.7-6.033 6.03-6.033s6.029 2.701 6.029 6.033c0 3.332-2.7 6.033-6.03 6.033zm0-16.088c-2.438 0-4.637-1.47-5.57-3.724-.933-2.254-.417-4.85 1.307-6.575 1.725-1.725 4.318-2.241 6.57-1.307 2.254.933 3.723 3.133 3.723 5.573 0 3.332-2.7 6.033-6.03 6.033zm16.078 16.088c-3.33 0-6.029-2.701-6.029-6.033 0-3.332 2.7-6.033 6.03-6.033s6.028 2.701 6.028 6.033c0 3.332-2.699 6.033-6.029 6.033zm0-16.088c-2.438 0-4.637-1.47-5.57-3.724-.933-2.254-.417-4.85 1.307-6.575 1.724-1.725 4.318-2.241 6.57-1.307 2.253.933 3.722 3.133 3.722 5.573 0 3.332-2.699 6.033-6.029 6.033z"/>
    </g>
</svg>
