<svg xmlns="http://www.w3.org/2000/svg" width="150" height="150" viewBox="0 0 150 150">
    <g fill="#4267A1">
        <path d="M76.445 95.962H55.3V87.83c0-2.695 2.185-4.88 4.88-4.88h11.385c2.695 0 4.88 2.185 4.88 4.88v8.132zM8.132 79.698v-4.88c0-2.695-2.184-4.88-4.879-4.88H0v11.39c3.067-2.307 5.95-1.435 8.132-1.63zM21.144 95.962H4.88C2.185 95.962 0 93.778 0 91.082V87.83c0-2.695 2.185-4.88 4.88-4.88h11.385c2.695 0 4.88 2.185 4.88 4.88v8.132zM48.794 95.962H27.65V87.83c0-2.695 2.185-4.88 4.88-4.88h11.385c2.695 0 4.88 2.185 4.88 4.88v8.132zM99.215 95.962H82.951V87.83c0-2.695 2.184-4.88 4.879-4.88h11.385c2.695 0 4.88 2.185 4.88 4.88v3.253c0 2.695-2.185 4.88-4.88 4.88zM99.215.102H4.88C2.185.102 0 2.286 0 4.982v48.692c0 1.796 1.456 3.253 3.253 3.253 1.797 0 3.253-1.457 3.253-3.253v-11.33c-.011-.87.65-1.603 1.518-1.679.45-.03.89.128 1.22.436.328.307.515.737.515 1.188V55.3c0 2.164 3.253 2.166 3.253 0v-8.076c-.011-.871.65-1.603 1.518-1.68.45-.029.89.129 1.22.436.328.308.515.738.515 1.188v6.506c0 1.796 1.456 3.253 3.253 3.253 1.796 0 3.253-1.457 3.253-3.253v-8.946c-.003-4.85-2.547-9.346-6.705-11.845 6.03-2.544 9.95-8.448 9.958-14.992V8.132c0-1.796 1.456-3.253 3.253-3.253h45.541c1.797 0 3.253 1.457 3.253 3.253v9.76c.007 6.543 3.929 12.447 9.958 14.991-4.158 2.5-6.702 6.994-6.705 11.845v8.946c0 1.796 1.456 3.253 3.253 3.253 1.797 0 3.253-1.457 3.253-3.253v-6.45c-.011-.871.65-1.603 1.518-1.68.45-.029.891.129 1.22.436.328.308.515.738.515 1.188V55.3c0 .899.728 1.627 1.626 1.627.899 0 1.627-.728 1.627-1.627V42.344c-.011-.87.65-1.603 1.518-1.679.45-.03.89.128 1.22.436.328.307.515.737.515 1.188v11.385c0 1.796 1.456 3.253 3.253 3.253 1.796 0 3.253-1.457 3.253-3.253V4.98c0-2.695-2.185-4.88-4.88-4.88zM8.132 13.012c-.898 0-1.626-.728-1.626-1.627V4.88h3.253v6.506c0 .899-.728 1.627-1.627 1.627zm8.133-1.627c0 .899-.728 1.627-1.627 1.627-.898 0-1.626-.728-1.626-1.627V4.88h3.253v6.506zm73.191 1.627c-.898 0-1.626-.728-1.626-1.627V4.88h3.253v6.506c0 .899-.728 1.627-1.627 1.627zm6.506 0c-.898 0-1.626-.728-1.626-1.627V4.88h3.253v6.506c0 .899-.728 1.627-1.627 1.627zM104.095 81.329v-11.39h-1.627c-2.695 0-4.88 2.184-4.88 4.88v4.879c.911.107 3.67-.505 6.507 1.63zM11.385 70.752c.639.003 1.241-.295 1.627-.803 3.042-4.058 7.48-3.137 8.132-3.263 0-2.695-2.184-4.88-4.88-4.88H4.88C2.185 61.806 0 63.991 0 66.686c1.583.245 6.48-1.11 9.76 3.263.387.507.988.804 1.625.803zM39.036 70.752c.638.003 1.24-.295 1.626-.803 3.043-4.058 7.482-3.137 8.132-3.263 0-2.695-2.184-4.88-4.879-4.88H32.53c-2.695 0-4.88 2.185-4.88 4.88 1.583.245 6.48-1.11 9.76 3.263.387.507.988.804 1.626.803zM68.312 69.949c3.043-4.058 7.482-3.137 8.133-3.263 0-2.695-2.185-4.88-4.88-4.88H60.18c-2.695 0-4.88 2.185-4.88 4.88 1.584.245 6.48-1.11 9.76 3.263.387.506.989.803 1.626.803.638 0 1.239-.297 1.626-.803zM94.336 70.752c.638.003 1.24-.295 1.626-.803 3.043-4.058 7.482-3.137 8.133-3.263 0-2.695-2.185-4.88-4.88-4.88H87.83c-2.695 0-4.88 2.185-4.88 4.88 1.584.245 6.48-1.11 9.76 3.263.387.507.988.804 1.626.803zM24.397 82.95c.94.002 1.844-.358 2.525-1.004 3.258-3.106 7.003-2.034 8.86-2.248v-4.88c0-2.695-2.184-4.88-4.879-4.88H19.518c-2.695 0-4.88 2.185-4.88 4.88v4.88c.776.115 4.217-.63 7.234 2.248.681.647 1.586 1.007 2.525 1.005zM52.047 82.95c.94.002 1.844-.358 2.526-1.004 3.257-3.106 7.002-2.034 8.86-2.248v-4.88c0-2.695-2.185-4.88-4.88-4.88H47.168c-2.695 0-4.88 2.185-4.88 4.88v4.88c.777.115 4.217-.63 7.234 2.248.681.647 1.586 1.007 2.525 1.005zM79.698 82.95c.94.002 1.843-.358 2.525-1.004 3.257-3.106 7.002-2.034 8.86-2.248v-4.88c0-2.695-2.185-4.88-4.88-4.88H74.818c-2.695 0-4.88 2.185-4.88 4.88v4.88c.777.115 4.217-.63 7.234 2.248.682.647 1.586 1.007 2.526 1.005z" transform="translate(24.003 27.66)"/>
    </g>
</svg>
